<?xml version="1.0" encoding="utf-8"?>
<!-- Generator: Adobe Illustrator 16.0.0, SVG Export Plug-In . SVG Version: 6.00 Build 0)  -->
<!DOCTYPE svg PUBLIC "-//W3C//DTD SVG 1.1//EN" "http://www.w3.org/Graphics/SVG/1.1/DTD/svg11.dtd">
<svg version="1.1" id="Layer_1" xmlns="http://www.w3.org/2000/svg" xmlns:xlink="http://www.w3.org/1999/xlink" x="0px" y="0px"
	 width="200px" height="200px" viewBox="0 0 200 200" enable-background="new 0 0 200 200" xml:space="preserve">
<g>
	<circle fill-rule="evenodd" clip-rule="evenodd" fill="#0DBCD4" cx="100.021" cy="99.998" r="97.002"/>
	<g>
		<path d="M167.245,134.855c0.885-7.717-1.302-15.233-6.143-21.157c-4.82-5.899-11.71-9.523-19.406-10.196
			c-0.816-0.068-1.642-0.106-2.46-0.106c-15.048,0-27.647,12.19-28.087,27.17c-0.364,12.517,7.534,23.889,19.211,27.655
			c2.953,0.954,5.989,1.438,9.021,1.438c0.006,0,0,0,0.006,0c9.383,0,18.114-4.72,23.349-12.642
			c0.962-1.451,1.678-2.963,2.366-4.416c0.286-0.604,0.574-1.216,0.88-1.809c0.111-0.225,0.198-0.461,0.262-0.701l0.915-3.685
			c0.06-0.253,0.095-0.511,0.095-0.77l-0.008-0.434C167.245,135.086,167.239,134.965,167.245,134.855z"/>
		<path d="M64.135,104.374c-2.279-0.608-4.635-0.916-7.005-0.916c-9.438,0-18.221,4.762-23.496,12.738
			c-0.944,1.427-1.646,2.912-2.326,4.345c-0.286,0.589-0.564,1.185-0.862,1.761c-0.113,0.228-0.204,0.462-0.264,0.71l-0.915,3.683
			c-0.056,0.24-0.091,0.484-0.094,0.736c-0.013,0.639-0.044,1.274-0.079,1.916c-0.082,1.573-0.166,3.203,0.032,4.908
			c1.292,11.358,7.348,19.333,17.985,23.705c0.1,0.037,0.186,0.096,0.276,0.145l0.335,0.188c0.239,0.121,0.489,0.223,0.749,0.286
			l3.68,0.913c0.229,0.058,0.467,0.089,0.706,0.096l0.482,0.006c0,0,0.003,0,0.006,0c0.145,0,0.298-0.01,0.439,0.012
			c1.141,0.143,2.294,0.214,3.438,0.214l0,0c7.686,0,15.167-3.301,20.513-9.052c5.369-5.78,8.017-13.22,7.454-20.954
			C84.287,117.522,76.03,107.546,64.135,104.374z"/>
		<path d="M143.964,83.718l-10.068-7.825c-2.862-2.225-5.729-4.45-8.591-6.673c4.362-0.019,8.507-1.814,11.375-4.939
			c5.118-5.588,5.712-13.688,1.444-19.698c-1.921-2.702-4.467-4.319-6.937-5.664c-0.24-0.134-0.505-0.238-0.776-0.3l-2.7-0.674
			c-0.413-0.1-0.836-0.125-1.25-0.065c-0.573,0.082-1.16,0.128-1.746,0.178c-1.548,0.129-3.308,0.273-5.019,0.925
			c-6.032,2.304-9.598,7.081-10.03,13.453c-0.122,1.787,0.038,3.46,0.414,5.041c-1.393-1.053-2.774-2.106-4.178-3.147
			c-3.22-2.376-6.881-2.902-10.394-1.561c-1.151-1.479-1.229-1.364-1.771-1.834c-3.044-2.633-6.532-4.052-10.673-4.353
			c-10.444-0.755-19.29,2.551-26.258,9.761c-2.752,2.846-4.127,5.831-4.206,9.122c-0.139,5.413,2.927,9.042,5.949,11.882
			c0.295,0.279,0.63,0.68,2.549,1.831c-3,5.397-2.273,11.203,2.043,15.682c1.648,1.717,3.342,3.134,5.028,4.216
			c6.053,3.877,12.266,7.704,18.271,11.4l0.367,0.229c1.579,7.907,3.194,15.809,4.805,23.71l0.333,1.621
			c0.388,1.894,1.157,4.671,3.41,6.939c1.592,1.602,3.67,2.479,5.862,2.479c2.714,0,5.27-1.383,6.836-3.701
			c1.405-2.081,1.919-4.514,1.54-7.247c-0.334-2.354-0.678-4.714-1.02-7.067c-0.956-6.555-1.947-13.325-2.648-19.982
			c-0.58-5.479-2.942-9.429-7.433-12.422c-2.548-1.702-4.996-3.573-7.588-5.558c-0.012-0.006-0.028-0.016-0.038-0.024l1.367-0.994
			c4.426-3.229,8.789-6.408,13.149-9.592c7.849,4.953,15.71,9.877,23.577,14.801l5.646,3.539c1.46,0.916,3.101,1.398,4.732,1.398
			c2.69,0,5.118-1.285,6.661-3.53C148.529,91.372,147.68,86.595,143.964,83.718z"/>
	</g>
	<g>
		<path fill-rule="evenodd" clip-rule="evenodd" fill="#FFFFFF" d="M141.412,106.774c-14.137-1.241-26.567,9.762-26.981,23.882
			c-0.323,11.001,6.705,21.14,16.936,24.439c10.918,3.521,22.336-0.373,28.633-9.892c1.215-1.839,2.052-3.932,3.057-5.909
			c0.308-1.226,0.61-2.452,0.916-3.68c0.002-0.38-0.029-0.76,0.012-1.126C165.588,120.388,155.504,108.007,141.412,106.774z"/>
		<path fill-rule="evenodd" clip-rule="evenodd" fill="#FFFFFF" d="M63.289,107.546c-10.093-2.689-20.992,1.499-26.913,10.457
			c-1.191,1.808-2.016,3.857-3.01,5.797c-0.3,1.23-0.608,2.455-0.915,3.685c-0.038,2.133-0.304,4.293-0.066,6.396
			c1.154,10.141,6.536,17.163,15.986,21.043c0.307,0.131,0.596,0.31,0.89,0.47c1.226,0.301,2.454,0.604,3.686,0.911
			c0.417,0.013,0.837-0.01,1.251,0.041c15.271,1.912,28.84-10.955,27.718-26.299C81.125,119.215,73.773,110.338,63.289,107.546z"/>
		<path fill-rule="evenodd" clip-rule="evenodd" fill="#FFFFFF" d="M119.106,64.271c4.809,2.889,11.342,1.943,15.149-2.21
			c4.074-4.451,4.523-10.886,1.191-15.575c-1.515-2.138-3.608-3.473-5.827-4.687c-0.902-0.219-1.806-0.448-2.704-0.67
			c-2.025,0.282-4.185,0.21-6.047,0.921c-4.78,1.825-7.58,5.486-7.928,10.602C112.604,57.669,114.713,61.632,119.106,64.271z"/>
		<path fill-rule="evenodd" clip-rule="evenodd" fill="#FFFFFF" d="M107.029,76.022c9.76,6.159,19.541,12.274,29.314,18.396
			c2.491,1.558,5.4,1.05,6.948-1.208c1.565-2.288,1.022-5.071-1.344-6.905c-8.746-6.792-17.484-13.606-26.245-20.386
			c-3.894-3.016-7.791-6.021-11.758-8.953c-2.494-1.843-5.252-2.219-8.099-0.787c-1.467,0.737-2.971,1.455-4.291,2.411
			c-7.024,5.04-14.018,10.13-20.976,15.259c-2.373,1.749-4.598,3.691-6.212,6.234c-2.718,4.285-2.376,8.842,1.141,12.5
			c1.332,1.382,2.821,2.692,4.432,3.723c6.207,3.972,12.481,7.838,18.756,11.702c0.753,0.463,1.12,0.999,1.289,1.852
			c1.699,8.511,3.438,17.015,5.172,25.518c0.401,1.966,1.072,3.814,2.526,5.279c2.275,2.288,5.84,1.934,7.645-0.745
			c1.025-1.512,1.263-3.157,1.013-4.948c-1.277-9.051-2.727-18.085-3.678-27.166c-0.476-4.472-2.319-7.587-5.993-10.04
			c-3.811-2.541-7.388-5.438-11.312-8.366c6.304-4.588,12.441-9.054,18.565-13.53C105.023,75.057,105.959,75.349,107.029,76.022z"/>
		<path fill-rule="evenodd" clip-rule="evenodd" fill="#FFFFFF" d="M60.796,74.95c0.762,0.717,1.279,0.721,2.119,0.078
			c5.053-3.871,9.713-8.181,14.795-12.004c4.441-3.342,9.319-6.178,13.876-9.607c-2.607-2.26-5.526-3.332-8.757-3.562
			c-9.206-0.66-17.199,2.076-23.666,8.768c-1.831,1.896-3.219,4.138-3.282,6.914C55.782,69.579,58.057,72.374,60.796,74.95z"/>
	</g>
</g>
</svg>
