<?xml version="1.0" encoding="utf-8"?>
<!-- Generator: Adobe Illustrator 16.0.0, SVG Export Plug-In . SVG Version: 6.00 Build 0)  -->
<!DOCTYPE svg PUBLIC "-//W3C//DTD SVG 1.1//EN" "http://www.w3.org/Graphics/SVG/1.1/DTD/svg11.dtd">
<svg version="1.1" id="Layer_1" xmlns="http://www.w3.org/2000/svg" xmlns:xlink="http://www.w3.org/1999/xlink" x="0px" y="0px"
	 width="200px" height="200px" viewBox="0 0 200 200" enable-background="new 0 0 200 200" xml:space="preserve">
<g>
	<path fill-rule="evenodd" clip-rule="evenodd" fill="#0DBCD4" d="M196.688,99.996c0,53.573-43.428,97.004-97.001,97.004
		c-53.57,0-96.998-43.431-96.998-97.004C2.689,46.429,46.116,3,99.687,3C153.26,3,196.688,46.429,196.688,99.996z"/>
	<g>
		<path d="M164.985,54.898c-1.949,0-3.823,0.809-5.203,2.232c-0.047,0.034-0.084,0.075-0.122,0.113
			c-5.771,5.786-9.419,9.425-14.227,14.224l-3.774,3.771c-0.272,0.27-0.464,0.379-0.558,0.417c-0.028-0.022-0.069-0.053-0.119-0.101
			c-0.025-0.025-0.05-0.05-0.065-0.072c0.065-0.119,0.197-0.304,0.429-0.533c2.188-2.203,7.027-7.018,17.612-17.449
			c0.279-0.276,0.486-0.479,0.602-0.595h0.004c1.433-1.417,2.222-3.319,2.222-5.351c0-4.116-3.272-7.463-7.29-7.463
			c-1.972,0-3.887,0.837-5.263,2.304c-0.16,0.163-0.458,0.458-1.025,1.025c-3.05,3.053-11.788,11.807-16.888,16.885
			c-0.285,0.288-0.499,0.442-0.637,0.52c-0.031-0.028-0.075-0.069-0.119-0.119c-0.016-0.016-0.031-0.031-0.041-0.044
			c0.044-0.113,0.173-0.341,0.489-0.658c3.326-3.335,6.397-6.403,9.484-9.494c2.699-2.695,5.401-5.4,8.304-8.309
			c0.05-0.047,0.101-0.101,0.144-0.15c1.235-1.323,1.919-3.053,1.919-4.887c0-3.909-3.112-7.084-6.934-7.084
			c-1.498,0-2.965,0.508-4.175,1.448c-0.166,0.116-0.323,0.245-0.467,0.386l-0.104,0.097c-3,2.871-18.381,17.612-26.9,26.113
			c-4.397,4.382-5.933,10.274-4.711,18.02c0.176,1.075,0.393,2.116,0.603,3.122l0.146,0.705c0.393,1.903-0.06,2.677-1.019,3.445
			c-1.332,1.056-2.504,2.232-3.636,3.366c-0.16,0.16-0.322,0.317-0.479,0.474c-0.834,0.796-2.796,2.611-5.372,4.977
			c-2.965-2.721-5.978-5.482-9.106-8.347c-1.956-1.79-2.786-3.338-2.877-5.347c-0.06-1.445-0.145-2.887-0.232-4.329
			c-0.405-6.57-1.401-13.428-5.94-19.083c-7.773-9.692-18.462-15.531-30.909-16.892c-0.122-0.016-0.244-0.022-0.367-0.022
			l-0.182-0.003c-5.833,0-10.315,1.555-13.324,4.623c-2.78,2.831-4.138,6.755-4.047,11.664c0.176,9.438,3.884,18.446,11.334,27.539
			c4.667,5.695,10.672,9.109,17.854,10.146c3.658,0.53,7.262,0.815,10.616,1.043c2.338,0.163,3.924,0.894,5.316,2.451
			c2.937,3.294,5.632,6.291,8.174,9.096c-5.958,5.447-11.312,10.334-12.663,11.578c-8.82,8.118-17.945,16.519-25.627,26.179
			c-1.297,1.634-2.473,3.529-3.495,5.627c-2.059,4.228-1.504,7.396,1.918,10.923c2.278,2.348,4.68,2.84,6.297,2.84
			c1.555,0,3.147-0.441,4.727-1.31c2.517-1.38,4.586-2.743,6.329-4.166c9.544-7.799,17.9-16.936,25.984-25.771
			c0.928-1.016,5.19-5.676,10.19-11.133c9.562,10.13,20.596,21.756,31.776,33.039c3.003,3.025,6.586,5.272,10.046,7.454l0.884,0.552
			c1.376,0.871,2.85,1.313,4.366,1.313c2.298,0,4.548-1.031,6.504-2.984c3.138-3.125,3.843-6.883,1.984-10.582
			c-1.053-2.097-2.128-4.131-3.683-5.93c-0.668-0.777-1.339-1.555-2.007-2.332c-3.284-3.83-6.676-7.792-10.462-11.35
			c-8.423-7.911-16.87-15.76-25.812-24.01c2.684-2.918,4.68-5.084,5.298-5.742c0.009-0.013,0.012-0.028,0.027-0.038
			c0.427-0.441,0.85-0.902,1.241-1.467c1.668-2.423,3.279-2.749,4.633-2.749c0.79,0,1.702,0.138,2.708,0.401
			c2,0.533,3.981,0.799,5.894,0.799c6.03,0,11.462-2.583,16.151-7.676c4.551-4.949,12.557-13.534,22.533-24.166
			c0.298-0.313,0.467-0.496,0.577-0.621l0.003,0.003c1.219-1.392,1.89-3.175,1.89-5.024
			C172.339,58.277,169.042,54.898,164.985,54.898z M59.384,157.723c-1.777,1.454-3.768,2.695-5.79,3.805
			c-2.401,1.317-4.729,1.248-6.811-0.896c-2.294-2.367-2.736-3.946-1.282-6.937c0.855-1.749,1.88-3.458,3.087-4.978
			c10.255-12.901,25.649-26.179,37.704-37.735c3.065,3.705,6.335,6.623,9.212,10.099C84.735,132.562,71.511,147.814,59.384,157.723z
			 M134.789,135.283c4.395,4.131,8.259,8.843,12.218,13.419c1.316,1.523,2.288,3.388,3.2,5.206c1.226,2.441,0.627,4.57-1.326,6.517
			c-1.972,1.965-4.25,2.614-6.513,1.185c-3.596-2.267-7.348-4.523-10.31-7.507c-11.023-11.127-21.821-22.493-32.576-33.883
			c-7.093-7.517-14.026-15.177-20.906-22.882c-2.125-2.385-4.626-3.407-7.698-3.62c-3.457-0.238-6.924-0.52-10.353-1.016
			c-6.344-0.918-11.579-3.94-15.641-8.896c-6.056-7.388-10.353-15.584-10.538-25.373c-0.153-8.25,4.495-12.757,14.021-12.707
			c10.738,1.172,20.913,6.072,28.554,15.597c3.956,4.937,4.796,10.992,5.172,17.101c0.088,1.42,0.163,2.843,0.229,4.266
			c0.141,3.216,1.624,5.598,4.012,7.786C102.561,105.334,118.756,120.22,134.789,135.283z M167.804,65.135
			c-0.003,0.009-15.13,16.104-23.057,24.721c-5.109,5.554-11.278,7.792-18.553,5.864c-4.758-1.263-8.341-0.313-11.137,3.743
			c-0.599,0.862-5.495,5.425-6.403,6.378c-2.677-2.363-5.257-4.646-8.1-7.168c1.705-1.636,7.228-7.153,8.933-8.507
			c2.339-1.855,2.84-4.166,2.272-6.908c-0.25-1.219-0.52-2.438-0.711-3.667c-0.875-5.52-0.396-10.879,3.717-14.979
			c9.372-9.356,26.919-26.125,26.972-26.182c0,0.006,0.01,0.006,0.01,0.013c0.593-0.523,1.348-0.85,2.182-0.85
			c1.887,0,3.417,1.602,3.417,3.57c0,0.997-0.396,1.893-1.022,2.542c-0.006,0.006-0.006,0.009-0.013,0.013
			c-6.228,6.244-11.562,11.56-17.791,17.807c-1.871,1.877-2.037,4.006-0.498,5.614c1.721,1.796,3.73,1.702,5.78-0.345
			c6.25-6.225,17.973-17.969,17.985-17.979c0.686-0.743,1.642-1.209,2.708-1.209c2.084,0,3.776,1.768,3.776,3.949
			c0,1.125-0.461,2.134-1.185,2.855c-0.021,0.025-12.707,12.5-18.232,18.061c-1.909,1.918-2,3.962-0.333,5.595
			c1.63,1.602,3.768,1.508,5.62-0.341c6.931-6.921,10.826-10.798,18.008-17.995c0.003,0.003,0.006,0.003,0.009,0.003
			c0.699-0.803,1.702-1.316,2.827-1.316c2.119,0,3.84,1.802,3.84,4.015C168.825,63.477,168.434,64.42,167.804,65.135z"/>
		<path fill="#FFFFFF" d="M82.322,82.691c-0.066-1.423-0.141-2.846-0.229-4.266c-0.376-6.109-1.216-12.165-5.172-17.101
			c-7.642-9.525-17.816-14.425-28.554-15.597c-9.525-0.05-14.174,4.458-14.021,12.707c0.185,9.789,4.482,17.985,10.538,25.373
			c4.062,4.956,9.297,7.977,15.641,8.896c3.429,0.496,6.896,0.777,10.353,1.016c3.072,0.213,5.573,1.235,7.698,3.62
			c6.88,7.705,13.813,15.365,20.906,22.882c10.755,11.39,21.553,22.756,32.576,33.883c2.962,2.983,6.714,5.24,10.31,7.507
			c2.263,1.43,4.541,0.78,6.513-1.185c1.953-1.946,2.552-4.075,1.326-6.517c-0.912-1.818-1.884-3.683-3.2-5.206
			c-3.959-4.576-7.823-9.288-12.218-13.419c-16.033-15.063-32.229-29.949-48.455-44.806C83.945,88.289,82.463,85.907,82.322,82.691z
			"/>
		<path fill="#FFFFFF" d="M48.589,148.718c-1.207,1.52-2.232,3.229-3.087,4.978c-1.455,2.99-1.013,4.569,1.282,6.937
			c2.082,2.144,4.41,2.213,6.811,0.896c2.022-1.109,4.012-2.351,5.79-3.805c12.127-9.908,25.351-25.16,36.121-36.642
			c-2.877-3.476-6.146-6.394-9.212-10.099C74.238,122.539,58.845,135.816,48.589,148.718z"/>
		<path fill="#FFFFFF" d="M164.985,58.415c-1.125,0-2.128,0.514-2.827,1.316c-0.003,0-0.006,0-0.009-0.003
			c-7.182,7.197-11.077,11.074-18.008,17.995c-1.853,1.849-3.99,1.943-5.62,0.341c-1.667-1.633-1.576-3.677,0.333-5.595
			c5.525-5.561,18.211-18.036,18.232-18.061c0.724-0.721,1.185-1.73,1.185-2.855c0-2.182-1.692-3.949-3.776-3.949
			c-1.066,0-2.022,0.467-2.708,1.209c-0.013,0.01-11.735,11.754-17.985,17.979c-2.05,2.047-4.06,2.141-5.78,0.345
			c-1.539-1.608-1.373-3.736,0.498-5.614c6.229-6.247,11.563-11.563,17.791-17.807c0.007-0.003,0.007-0.006,0.013-0.013
			c0.627-0.649,1.022-1.545,1.022-2.542c0-1.968-1.53-3.57-3.417-3.57c-0.834,0-1.589,0.326-2.182,0.85
			c0-0.006-0.01-0.006-0.01-0.013c-0.053,0.057-17.6,16.826-26.972,26.182c-4.112,4.1-4.592,9.459-3.717,14.979
			c0.191,1.229,0.461,2.448,0.711,3.667c0.567,2.743,0.066,5.053-2.272,6.908c-1.705,1.354-7.228,6.871-8.933,8.507
			c2.843,2.523,5.423,4.805,8.1,7.168c0.908-0.953,5.805-5.517,6.403-6.378c2.796-4.056,6.379-5.006,11.137-3.743
			c7.274,1.928,13.443-0.31,18.553-5.864c7.927-8.617,23.054-24.712,23.057-24.721c0.63-0.715,1.021-1.658,1.021-2.705
			C168.825,60.217,167.104,58.415,164.985,58.415z"/>
	</g>
</g>
</svg>
