<?xml version="1.0" encoding="utf-8"?>
<!-- Generator: Adobe Illustrator 16.0.0, SVG Export Plug-In . SVG Version: 6.00 Build 0)  -->
<!DOCTYPE svg PUBLIC "-//W3C//DTD SVG 1.1//EN" "http://www.w3.org/Graphics/SVG/1.1/DTD/svg11.dtd">
<svg version="1.1" id="Layer_1" xmlns="http://www.w3.org/2000/svg" xmlns:xlink="http://www.w3.org/1999/xlink" x="0px" y="0px"
	 width="200px" height="200px" viewBox="0 0 200 200" enable-background="new 0 0 200 200" xml:space="preserve">
<g>
	<path fill-rule="evenodd" clip-rule="evenodd" fill="#0DBCD4" d="M196.999,99.996c0,53.573-43.428,97.004-97.001,97.004
		c-53.57,0-96.997-43.431-96.997-97.004C3.001,46.429,46.428,3,99.998,3C153.571,3,196.999,46.429,196.999,99.996z"/>
	<path fill="#FFFFFF" d="M150.053,169.576c-33.363,0-66.727,0-100.09,0c-1.841-0.869-2.389-2.379-2.376-4.328
		c0.048-7.834,0.025-15.664,0.026-23.496c0.002-33.154,0-66.306,0.006-99.459c0-2.986,0.926-4.107,3.706-4.57
		c3.182-0.53,6.374-1.017,9.547-1.594c14.094-2.562,28.068-5.634,41.628-10.33c7.917-2.745,15.681-5.834,22.077-11.516
		c0.81,0,1.616,0,2.426,0c1.652,1.117,2.163,2.654,2.107,4.643c-0.152,5.755-0.141,11.518-0.188,17.276
		c-0.004,0.531,0.049,1.062,0.081,1.673c0.795,0,1.396,0,2.001,0c5.76,0,11.521-0.007,17.281,0.003
		c2.949,0.005,4.118,1.178,4.118,4.126c-0.002,41.081-0.011,82.161,0.011,123.239C152.414,167.191,151.893,168.703,150.053,169.576z
		"/>
	<g id="yq266y.tif">
		<g>
			<path d="M150.053,169.576c-33.363,0-66.727,0-100.09,0c-1.841-0.869-2.389-2.379-2.376-4.328
				c0.048-7.834,0.025-15.664,0.026-23.496c0.002-33.154,0-66.306,0.006-99.459c0-2.986,0.926-4.107,3.706-4.57
				c3.182-0.53,6.374-1.017,9.547-1.594c14.094-2.562,28.068-5.634,41.628-10.33c7.917-2.745,15.681-5.834,22.077-11.516
				c0.81,0,1.616,0,2.426,0c1.652,1.117,2.163,2.654,2.107,4.643c-0.152,5.755-0.141,11.518-0.188,17.276
				c-0.004,0.531,0.049,1.062,0.081,1.673c0.795,0,1.396,0,2.001,0c5.76,0,11.521-0.007,17.281,0.003
				c2.949,0.005,4.118,1.178,4.118,4.126c-0.002,41.081-0.011,82.161,0.011,123.239
				C152.414,167.191,151.893,168.703,150.053,169.576z M122.371,24.069c-11.657,6.638-24.265,10.203-36.866,13.712
				c12.256,0,24.512,0,36.866,0C122.371,33.218,122.371,28.744,122.371,24.069z M84.114,113.244
				c-0.405-6.576-0.798-12.951-1.199-19.47c-0.801,0-1.454,0.051-2.096-0.013c-0.776-0.076-1.175,0.213-1.434,0.956
				c-1.583,4.569-3.208,9.124-4.817,13.685c-0.136,0.383-0.254,0.771-0.392,1.197c-1.554-4.557-3.049-8.993-4.579-13.419
				c-0.908-2.632-0.93-2.622-3.711-2.336c-0.044,0.005-0.087,0.042-0.312,0.147c-0.442,6.32-0.894,12.74-1.348,19.213
				c0.855,0,1.583,0,2.371,0c0.302-5.438,0.599-10.766,0.897-16.092c0.297,0.242,0.388,0.504,0.475,0.768
				c1.54,4.689,3.086,9.375,4.613,14.068c0.225,0.695,0.362,1.279,1.353,1.283c0.973,0.002,1.172-0.578,1.41-1.252
				c1.668-4.754,3.335-9.506,5.01-14.257c0.099-0.28,0.258-0.54,0.462-0.961c0.31,5.626,0.61,11.046,0.911,16.481
				C82.638,113.244,83.276,113.244,84.114,113.244z M104.562,97.307c3.07,4.963,6.083,9.682,8.921,14.502
				c0.905,1.541,1.948,1.791,3.433,1.336c0-6.459,0-12.854,0-19.278c-0.769,0-1.445,0-2.163,0c0,5.253,0,10.409,0,15.462
				c-2.889-4.637-5.883-9.287-8.697-14.041c-0.943-1.591-2.061-1.754-3.576-1.369c0,6.473,0,12.861,0,19.311
				c0.732,0,1.361,0,2.083,0C104.562,107.918,104.562,102.693,104.562,97.307z M133.33,93.836c0,0.98,0.014,1.829-0.003,2.678
				c-0.08,3.679-0.08,7.362-0.292,11.037c-0.103,1.738-1.021,3.146-2.795,3.795c-3.195,1.168-6.066-0.918-6.242-4.652
				c-0.112-2.367-0.039-4.745-0.044-7.117c-0.003-1.9,0-3.801,0-5.692c-0.946,0-1.672,0-2.412,0c0,4.604-0.185,9.099,0.06,13.575
				c0.207,3.844,2.811,6.061,6.552,6.188c3.812,0.123,6.882-1.887,7.241-5.443c0.479-4.736,0.399-9.527,0.562-14.367
				C134.939,93.836,134.249,93.836,133.33,93.836z M88.199,93.864c0,6.487,0,12.876,0,19.353c3.608,0,7.166,0,10.749,0
				c0-0.678,0-1.248,0-1.957c-2.814,0-5.519,0-8.274,0c0-2.434,0-4.723,0-7.186c2.545,0,4.99,0,7.522,0
				c-0.033-0.711-0.056-1.242-0.089-1.959c-2.549,0-4.993,0-7.412,0c0-2.182,0-4.17,0-6.309c2.677,0,5.227,0,7.754,0
				c0-0.736,0-1.321,0-1.942C94.996,93.864,91.641,93.864,88.199,93.864z"/>
		</g>
	</g>
</g>
</svg>
