<?xml version="1.0" encoding="utf-8"?>
<!-- Generator: Adobe Illustrator 16.0.0, SVG Export Plug-In . SVG Version: 6.00 Build 0)  -->
<!DOCTYPE svg PUBLIC "-//W3C//DTD SVG 1.1//EN" "http://www.w3.org/Graphics/SVG/1.1/DTD/svg11.dtd">
<svg version="1.1" id="Layer_1" xmlns="http://www.w3.org/2000/svg" xmlns:xlink="http://www.w3.org/1999/xlink" x="0px" y="0px"
	 width="200px" height="200px" viewBox="0 0 200 200" enable-background="new 0 0 200 200" xml:space="preserve">
<g>
	<circle fill-rule="evenodd" clip-rule="evenodd" fill="#0DBCD4" cx="99.837" cy="99.837" r="96.738"/>
	<path fill="#231F20" d="M153.63,146.227c-0.043-0.25-0.097-0.5-0.159-0.7c-0.553-1.97-1.669-3.626-3.326-4.939l-0.199-0.156
		c-3.292-2.601-6.584-5.204-9.903-7.774c-2.085-1.612-4.189-3.194-6.296-4.779l-1.747-1.315c-1.048-0.788-2.079-1.404-3.146-1.879
		c-1-0.45-2.541-1.048-4.345-1.048c-0.144,0-0.294,0.004-0.472,0.013c-0.604,0.038-1.191,0.2-1.717,0.469
		c-2.916,1.541-6.974,2.879-9.327,5.199c-1.538,1.513-2.17,2.619-4.343,3.329c-1.5,0.5-2.841,0.656-4.116,0.49
		c-0.697-0.094-1.322-0.294-1.926-0.615c-0.897-0.476-1.679-1.182-2.379-2.154c-1.235-1.723-2.332-3.554-3.432-5.436
		c-2.289-3.917-4.43-7.855-6.037-10.851c-5.033-9.35-9.774-18.646-13.748-26.502c-0.372-0.741-0.65-1.516-0.847-2.366
		c-0.388-1.682-0.463-3.188-0.225-4.602c0.319-1.932,1.197-3.473,2.676-4.705c1.628-1.356,3.67-1.582,5.692-1.863
		c2.169-0.31,4.089-0.897,6.014-1.97c1.388-0.769,2.51-1.657,3.429-2.726l1.969-2.301c0.663-0.778,0.991-1.738,0.96-2.723
		c-0.038-1.944-0.069-3.876-0.097-5.817l-0.209-14.739c-0.031-1.922-0.053-3.842-0.072-5.755c-0.009-1.169-0.344-2.266-0.988-3.257
		c-0.538-0.835-1.238-1.604-2.135-2.345c-5.905-4.883-14.254-4.486-21.341-3.032c-2.97,0.6-5.786,1.466-8.368,2.579
		c-3.514,1.522-6.449,3.401-8.971,5.746c-3.717,3.46-6.252,7.768-7.534,12.804c-0.472,1.851-0.775,3.804-0.897,5.795
		c-0.01,0.131-0.028,0.263-0.047,0.394l-0.041,0.303c-0.016,0.138-0.028,0.278-0.028,0.416v3.036c0,0.144,0.012,0.288,0.028,0.428
		l0.06,1.125c0.031,0.872,0.065,1.75,0.103,2.635c0.084,1.798,0.181,3.595,0.291,5.402c0.075,1.263,0.162,2.52,0.272,3.779
		c0.119,1.382,0.256,2.76,0.403,4.129c0.119,1.172,0.25,2.338,0.394,3.507c0.156,1.247,0.322,2.495,0.513,3.754
		c0.263,1.704,0.531,3.407,0.844,5.095c0.375,2.041,0.785,4.076,1.223,6.102c0.769,3.579,1.738,7.202,2.882,10.76
		c1.441,4.501,3.032,8.468,4.876,12.138c1.069,2.126,2.229,4.123,3.442,5.934c2.382,3.575,4.939,7.38,7.674,11.131
		c3.373,4.627,6.589,8.653,9.831,12.311c2.801,3.163,5.496,5.914,8.24,8.399c3.638,3.304,7.14,5.971,10.715,8.155
		c3.299,2.017,6.493,3.514,9.757,4.583c1.906,0.619,3.716,1.057,5.454,1.315c0.304,0.091,0.619,0.141,0.941,0.141h8.015
		c0.369,0,0.772-0.081,1.135-0.209c4.799-1.172,9.481-2.723,13.914-4.614c3.429-1.466,6.608-3.329,9.834-5.192
		c1.653-0.953,3.188-1.778,4.017-3.582c1.022-2.244,1.585-4.808,2.319-7.165c0.138-0.431,0.25-0.859,0.356-1.294l0.119-0.469
		c0.075-0.275,0.112-0.56,0.112-0.841v-0.909C153.718,146.776,153.674,146.442,153.63,146.227z"/>
	<g id="Rw0bab.tif_1_">
		<g>
			<path fill-rule="evenodd" clip-rule="evenodd" fill="#FFFFFF" d="M49.217,57.415c0.035-0.297,0.088-0.594,0.109-0.897
				c0.109-1.76,0.366-3.498,0.8-5.208c1.116-4.376,3.286-8.134,6.599-11.219c2.366-2.204,5.083-3.857,8.04-5.139
				c2.488-1.069,5.067-1.841,7.721-2.379c1.403-0.288,2.81-0.497,4.229-0.644c0.641-0.065,1.288-0.097,1.97-0.144
				c0.012,0.131,0.025,0.237,0.031,0.341c0.025,0.69,0.043,1.375,0.062,2.063c0.069,2.513,0.137,5.02,0.209,7.527
				c0.078,2.763,0.159,5.523,0.241,8.29c0.065,2.06,0.122,4.123,0.184,6.189c0.082,2.741,0.163,5.479,0.241,8.224
				c0.069,2.226,0.135,4.448,0.213,6.674c0.006,0.197-0.069,0.285-0.231,0.363c-1.116,0.516-2.163,1.15-3.104,1.938
				c-2.104,1.754-3.36,3.986-3.811,6.677c-0.332,1.976-0.185,3.929,0.269,5.871c0.25,1.082,0.613,2.11,1.113,3.104
				c4.505,8.906,9.056,17.793,13.783,26.583c1.982,3.679,3.992,7.336,6.099,10.943c1.138,1.941,2.285,3.867,3.598,5.692
				c0.935,1.301,2.072,2.379,3.495,3.136c0.946,0.503,1.956,0.822,3.016,0.966c1.917,0.253,3.773-0.021,5.59-0.625
				c1.069-0.351,2.094-0.804,3.088-1.388c10.447,8.208,20.892,16.414,31.366,24.657c-0.106,0.075-0.19,0.135-0.281,0.193
				c-2.601,1.654-5.339,3.036-8.178,4.242c-4.407,1.882-8.949,3.373-13.604,4.495c-0.054,0.019-0.106,0.044-0.163,0.069
				c-2.67,0-5.342,0-8.015,0c-0.057-0.02-0.106-0.051-0.166-0.06c-1.778-0.257-3.514-0.685-5.214-1.238
				c-3.201-1.044-6.202-2.507-9.068-4.258c-3.673-2.247-7.043-4.897-10.225-7.789c-2.823-2.561-5.467-5.293-7.993-8.146
				c-3.42-3.857-6.602-7.905-9.634-12.072c-2.632-3.607-5.126-7.306-7.599-11.02c-1.201-1.788-2.27-3.66-3.239-5.586
				c-1.888-3.764-3.404-7.668-4.683-11.669c-1.106-3.438-2.044-6.921-2.804-10.45c-0.432-2.001-0.829-4.001-1.201-6.005
				c-0.31-1.672-0.572-3.351-0.828-5.029c-0.191-1.207-0.35-2.423-0.503-3.636c-0.141-1.144-0.266-2.291-0.384-3.436
				c-0.147-1.359-0.282-2.716-0.4-4.076c-0.103-1.231-0.19-2.463-0.269-3.695c-0.1-1.788-0.2-3.579-0.285-5.367
				c-0.056-1.231-0.094-2.466-0.138-3.701c-0.006-0.106-0.031-0.216-0.047-0.328C49.217,59.44,49.217,58.428,49.217,57.415z"/>
			<path fill-rule="evenodd" clip-rule="evenodd" fill="#FFFFFF" d="M150.457,147.908c-0.144,0.534-0.262,1.075-0.431,1.604
				c-0.77,2.451-1.548,4.896-2.326,7.343c-0.016,0.057-0.04,0.109-0.065,0.166c-0.209-0.084-31.775-25.107-32.223-25.542
				c0.065-0.041,0.119-0.098,0.185-0.135c2.745-1.441,5.492-2.895,8.243-4.339c0.119-0.062,0.266-0.094,0.403-0.1
				c1.16-0.062,2.232,0.284,3.279,0.753c0.894,0.403,1.729,0.919,2.517,1.51c2.672,2.02,5.354,4.021,8.009,6.074
				c3.376,2.609,6.724,5.258,10.074,7.905c1.075,0.851,1.835,1.932,2.21,3.257c0.057,0.194,0.085,0.397,0.125,0.595
				C150.457,147.302,150.457,147.605,150.457,147.908z"/>
			<path fill-rule="evenodd" clip-rule="evenodd" fill="#FFFFFF" d="M83.896,31.663c0.144,0.031,0.288,0.069,0.435,0.094
				c1.241,0.188,2.41,0.604,3.535,1.147c1.15,0.56,2.245,1.203,3.232,2.019c0.566,0.466,1.079,0.981,1.476,1.601
				c0.3,0.463,0.462,0.954,0.469,1.51c0.019,2.523,0.06,5.039,0.094,7.559c0.062,4.323,0.128,8.644,0.188,12.963
				c0.028,1.938,0.06,3.879,0.097,5.824c0.006,0.219-0.05,0.388-0.185,0.55c-0.657,0.763-1.297,1.528-1.957,2.288
				c-0.709,0.829-1.575,1.472-2.535,2c-1.044,0.579-2.129,1.076-3.301,1.341c-0.413,0.094-0.835,0.156-1.263,0.109
				c-0.587-0.072-0.869-0.332-0.941-0.922c-0.081-0.587-0.147-1.185-0.181-1.779c-0.2-3.191-0.316-6.383-0.394-9.581
				c-0.062-2.457-0.134-4.917-0.175-7.374c-0.094-4.886-0.169-9.775-0.25-14.661c-0.025-1.397-0.038-2.792-0.057-4.189
				c0-0.109,0-0.222,0-0.353c0.191-0.05,0.375-0.097,0.557-0.147C83.127,31.663,83.512,31.663,83.896,31.663z"/>
		</g>
	</g>
</g>
</svg>
