<?xml version="1.0" encoding="utf-8"?>
<!-- Generator: Adobe Illustrator 16.0.0, SVG Export Plug-In . SVG Version: 6.00 Build 0)  -->
<!DOCTYPE svg PUBLIC "-//W3C//DTD SVG 1.1//EN" "http://www.w3.org/Graphics/SVG/1.1/DTD/svg11.dtd">
<svg version="1.1" id="Layer_1" xmlns="http://www.w3.org/2000/svg" xmlns:xlink="http://www.w3.org/1999/xlink" x="0px" y="0px"
	 width="200px" height="200px" viewBox="0 0 200 200" enable-background="new 0 0 200 200" xml:space="preserve">
<g>
	<path fill-rule="evenodd" clip-rule="evenodd" fill="#0DBCD4" d="M196.883,100.006c0,53.566-43.421,96.994-96.987,96.994
		c-53.569,0-96.994-43.428-96.994-96.994c0-53.569,43.424-96.992,96.994-96.992C153.462,3.015,196.883,46.438,196.883,100.006z"/>
	<g>
		
			<rect x="41.887" y="41.996" fill="#FFFFFF" stroke="#231F20" stroke-width="2.9294" stroke-linecap="round" stroke-linejoin="round" stroke-miterlimit="10" width="115.371" height="115.373"/>
		
			<line fill="none" stroke="#231F20" stroke-width="2.9294" stroke-linecap="round" stroke-linejoin="round" stroke-miterlimit="10" x1="41.887" y1="55.326" x2="157.258" y2="55.326"/>
		<g>
			<g>
				
					<rect x="50.513" y="65.646" fill="none" stroke="#231F20" stroke-width="2.9294" stroke-linecap="round" stroke-linejoin="round" stroke-miterlimit="10" width="11.182" height="11.183"/>
				
					<polyline fill="none" stroke="#231F20" stroke-width="2.9294" stroke-linecap="round" stroke-linejoin="round" stroke-miterlimit="10" points="
					71.805,74.165 74.88,68.307 77.957,74.165 81.029,68.307 84.104,74.165 87.177,68.307 90.251,74.165 93.33,68.307 
					96.404,74.165 99.479,68.307 102.557,74.165 105.628,68.307 108.699,74.165 111.771,68.307 114.85,74.165 117.92,68.307 
					120.992,74.165 124.06,68.307 127.141,74.165 130.213,68.307 133.287,74.165 136.361,68.307 139.442,74.165 142.517,68.307 
					145.595,74.165 148.674,68.307 151.75,74.165 				"/>
			</g>
			<g>
				
					<rect x="50.513" y="83.605" fill="#231F20" stroke="#231F20" stroke-width="2.9294" stroke-linecap="round" stroke-linejoin="round" stroke-miterlimit="10" width="11.182" height="11.183"/>
				
					<polyline fill="none" stroke="#231F20" stroke-width="2.9294" stroke-linecap="round" stroke-linejoin="round" stroke-miterlimit="10" points="
					71.805,92.127 74.88,86.267 77.957,92.127 81.029,86.267 84.104,92.127 87.177,86.267 90.251,92.127 93.33,86.267 
					96.404,92.127 99.479,86.267 102.557,92.127 105.628,86.267 108.699,92.127 111.771,86.267 114.85,92.127 117.92,86.267 
					120.992,92.127 124.06,86.267 127.141,92.127 130.213,86.267 133.287,92.127 136.361,86.267 139.442,92.127 142.517,86.267 
					145.595,92.127 148.674,86.267 151.75,92.127 				"/>
			</g>
			<g>
				
					<rect x="50.513" y="101.563" fill="none" stroke="#231F20" stroke-width="2.9294" stroke-linecap="round" stroke-linejoin="round" stroke-miterlimit="10" width="11.182" height="11.181"/>
				
					<polyline fill="none" stroke="#231F20" stroke-width="2.9294" stroke-linecap="round" stroke-linejoin="round" stroke-miterlimit="10" points="
					71.805,110.084 74.88,104.223 77.957,110.084 81.029,104.223 84.104,110.084 87.177,104.223 90.251,110.084 93.33,104.223 
					96.404,110.084 99.479,104.223 102.557,110.084 105.628,104.223 108.699,110.084 111.771,104.223 114.85,110.084 
					117.92,104.223 120.992,110.084 124.06,104.223 127.141,110.084 130.213,104.223 133.287,110.084 136.361,104.223 
					139.442,110.084 142.517,104.223 145.595,110.084 148.674,104.223 151.75,110.084 				"/>
			</g>
			<g>
				
					<rect x="50.513" y="119.52" fill="none" stroke="#231F20" stroke-width="2.9294" stroke-linecap="round" stroke-linejoin="round" stroke-miterlimit="10" width="11.182" height="11.183"/>
				
					<polyline fill="none" stroke="#231F20" stroke-width="2.9294" stroke-linecap="round" stroke-linejoin="round" stroke-miterlimit="10" points="
					71.805,128.042 74.88,122.182 77.957,128.042 81.029,122.182 84.104,128.042 87.177,122.182 90.251,128.042 93.33,122.182 
					96.404,128.042 99.479,122.182 102.557,128.042 105.628,122.182 108.699,128.042 111.771,122.182 114.85,128.042 
					117.92,122.182 120.992,128.042 124.06,122.182 127.141,128.042 130.213,122.182 133.287,128.042 136.361,122.182 
					139.442,128.042 142.517,122.182 145.595,128.042 148.674,122.182 151.75,128.042 				"/>
			</g>
			<g>
				
					<rect x="50.513" y="137.479" fill="none" stroke="#231F20" stroke-width="2.9294" stroke-linecap="round" stroke-linejoin="round" stroke-miterlimit="10" width="11.182" height="11.18"/>
				
					<polyline fill="none" stroke="#231F20" stroke-width="2.9294" stroke-linecap="round" stroke-linejoin="round" stroke-miterlimit="10" points="
					71.805,145.998 74.88,140.137 77.957,145.998 81.029,140.137 84.104,145.998 87.177,140.137 90.251,145.998 93.33,140.137 
					96.404,145.998 99.479,140.137 102.557,145.998 105.628,140.137 108.699,145.998 111.771,140.137 114.85,145.998 
					117.92,140.137 120.992,145.998 124.06,140.137 127.141,145.998 130.213,140.137 133.287,145.998 136.361,140.137 
					139.442,145.998 142.517,140.137 145.595,145.998 148.674,140.137 151.75,145.998 				"/>
			</g>
		</g>
		<g>
			<path fill="#231F20" d="M98.796,141.799c-0.803,0-1.559-0.312-2.126-0.878L83.345,127.59l-2.641,7.673
				c-0.394,1.164-1.448,1.961-2.684,2.024c-0.025,0.001-0.137,0.004-0.162,0.004c-1.156,0-2.222-0.674-2.715-1.719L54.062,91.093
				c-0.415-0.875-0.336-1.914,0.21-2.778c0.584-0.924,1.587-1.498,2.618-1.498c0.413,0,0.811,0.09,1.184,0.268l44.477,21.076
				c1.12,0.536,1.792,1.67,1.72,2.89c-0.072,1.227-0.868,2.276-2.028,2.674l-7.672,2.64l13.329,13.324
				c1.174,1.178,1.173,3.086,0,4.257l-6.976,6.975C100.356,141.486,99.602,141.799,98.796,141.799z"/>
			<path fill="#FFFFFF" d="M56.89,88.282c0.185,0,0.373,0.039,0.554,0.125l44.479,21.077c0.568,0.272,0.922,0.855,0.885,1.479
				c-0.037,0.629-0.448,1.172-1.041,1.375l-9.892,3.403l14.987,14.982c0.603,0.604,0.603,1.583,0,2.185l-6.976,6.975
				c-0.299,0.3-0.694,0.45-1.09,0.45c-0.395,0-0.791-0.15-1.092-0.45l-14.981-14.988l-3.404,9.891
				c-0.202,0.596-0.746,1.006-1.374,1.038c-0.029,0.002-0.058,0.002-0.086,0.002c-0.592,0-1.137-0.343-1.392-0.88l-21.082-44.48
				C54.912,89.466,55.87,88.282,56.89,88.282 M56.89,85.353c-1.528,0-3.005,0.835-3.855,2.18c-0.816,1.291-0.927,2.856-0.295,4.188
				l21.082,44.48c0.734,1.551,2.319,2.555,4.039,2.555c0.083,0,0.167-0.002,0.251-0.007c1.824-0.094,3.394-1.28,3.984-3.023
				l1.873-5.442l11.666,11.672c0.847,0.845,1.97,1.309,3.164,1.309c1.197,0,2.321-0.466,3.164-1.312l6.974-6.972
				c1.742-1.739,1.744-4.577,0.003-6.324l-11.674-11.67l5.457-1.878c1.721-0.589,2.904-2.149,3.012-3.972
				c0.108-1.815-0.89-3.502-2.542-4.294L58.698,85.76C58.132,85.491,57.522,85.353,56.89,85.353L56.89,85.353z"/>
		</g>
	</g>
</g>
</svg>
