<?xml version="1.0" encoding="utf-8"?>
<!-- Generator: Adobe Illustrator 16.0.0, SVG Export Plug-In . SVG Version: 6.00 Build 0)  -->
<!DOCTYPE svg PUBLIC "-//W3C//DTD SVG 1.1//EN" "http://www.w3.org/Graphics/SVG/1.1/DTD/svg11.dtd">
<svg version="1.1" id="Layer_1" xmlns="http://www.w3.org/2000/svg" xmlns:xlink="http://www.w3.org/1999/xlink" x="0px" y="0px"
	 width="200px" height="200px" viewBox="0 0 200 200" enable-background="new 0 0 200 200" xml:space="preserve">
<g>
	<circle fill-rule="evenodd" clip-rule="evenodd" fill="#0DBCD4" cx="99.994" cy="99.992" r="96.994"/>
	<g>
		<path fill="none" d="M116.471,38.6c-1.417-3.441-4.379-5.942-8.23-6.842C112.092,32.657,115.054,35.162,116.471,38.6z"/>
		<path fill="none" d="M94.377,43.364c-0.084-2.993,0.859-5.639,2.805-7.886C95.236,37.725,94.293,40.371,94.377,43.364z"/>
		<path fill="none" d="M117.386,43.138L117.386,43.138c0.034,1.765-0.392,3.488-1.216,5.049
			C116.994,46.626,117.42,44.903,117.386,43.138z"/>
		<path d="M95.221,53.613c2.924,2.905,6.566,4.441,10.537,4.441c0.818,0,1.654-0.069,2.491-0.197
			c3.172-0.499,6.046-2.047,8.544-4.595c2.73-2.783,4.2-6.403,4.131-10.189c-0.15-8.334-6.419-14.721-14.902-15.191
			c-0.095-0.006-0.188-0.006-0.273-0.006c-0.104,0-0.21,0.003-0.31,0.013c-4.382,0.263-8.159,2.087-10.926,5.271
			c-2.912,3.354-4.106,7.369-3.551,11.935C91.35,48.291,92.826,51.237,95.221,53.613z M97.183,35.478
			c2.159-2.485,5.015-3.849,8.475-4.062l0.082-0.003l0.088,0.003c0.833,0.047,1.642,0.163,2.413,0.342
			c3.852,0.899,6.813,3.4,8.23,6.842c0.567,1.376,0.887,2.902,0.915,4.535c0,0,0,0,0,0.003l0,0c0.034,1.765-0.392,3.488-1.216,5.049
			c-0.492,0.934-1.132,1.812-1.906,2.598c-1.98,2.021-4.128,3.19-6.562,3.573c-0.646,0.101-1.298,0.157-1.943,0.157
			c-3.012,0-5.792-1.182-8.045-3.413c-1.824-1.809-2.943-4.037-3.238-6.438c-0.053-0.439-0.084-0.875-0.097-1.301
			C94.293,40.371,95.236,37.725,97.183,35.478z"/>
		<path d="M139.93,97.708c-1.868-0.787-3.742-1.567-5.613-2.341c-0.874-0.363-1.746-0.718-2.626-1.072
			c-0.621-0.245-1.238-0.495-1.855-0.749l-0.468-0.188c-1.253-0.514-2.504-1.028-3.754-1.558c-0.448-0.188-0.894-0.389-1.332-0.593
			c-0.577-0.26-1.15-0.52-1.73-0.761c-0.43-0.182-0.881-0.345-1.329-0.501c-0.263-0.091-0.529-0.182-0.79-0.292
			c-0.009-0.003-0.024-0.013-0.037-0.016c-0.342-0.768-0.702-1.499-1.057-2.21c-0.234-0.489-0.473-0.978-0.705-1.47
			c-0.257-0.552-0.511-1.106-0.762-1.665c-0.41-0.906-0.824-1.812-1.253-2.711c-0.678-1.392-5.88-13.681-7.093-15.279
			c-1.028-1.363-1.962-2.441-2.938-3.391c-2.347-2.288-4.808-2.764-6.469-2.764c-0.157,0-0.323,0-0.492,0.012
			c-0.376,0.019-0.752,0.025-1.125,0.025c-0.351,0-0.699-0.006-1.047-0.006c-0.395-0.009-0.79-0.013-1.185-0.013
			c-0.348,0-0.699,0.013-1.05,0.019c-0.27,0.006-0.533,0.012-0.796,0.012c-0.197,0-0.395,0-0.592-0.019
			c-0.348-0.038-0.692-0.057-1.031-0.057c-3.585,0-6.143,1.906-7.666,3.047c-0.689,0.514-1.319,1.056-1.871,1.532
			c-0.201,0.172-0.401,0.345-0.602,0.514l-0.589,0.492c-1.429,1.197-2.855,2.395-4.281,3.598c-0.687,0.583-1.373,1.169-2.05,1.755
			c-0.649,0.558-1.298,1.109-1.95,1.665c-0.802,0.683-1.617,1.36-2.432,2.043l-1.084,0.909l-0.771,0.64
			c-0.79,0.67-1.589,1.338-2.382,2.012c-1.229,1.044-3.203,2.721-3.783,5.708c-0.1,0.517-0.191,1.047-0.288,1.57
			c-0.106,0.599-0.213,1.197-0.333,1.793c-0.141,0.692-0.292,1.385-0.445,2.081c-0.219,1.031-0.445,2.065-0.643,3.106
			c-0.329,1.727-0.63,3.46-0.937,5.193c-0.157,0.875-0.311,1.755-0.467,2.633c-0.072,0.392-0.147,0.792-0.229,1.188l-0.106,0.551
			l-0.229,1.16c-0.194,0.972-0.389,1.946-0.561,2.924l-0.088,0.464c-0.166,0.872-0.395,2.062-0.294,3.423
			c0.154,2.05,1.464,4.735,3.968,5.776c0.846,0.351,1.736,0.521,2.727,0.521c0.52,0,0.987-0.051,1.329-0.085
			c0.11-0.006,0.213-0.021,0.32-0.025c2.297-0.15,4.219-1.771,4.839-4.033l0.21-0.733c0.329-1.194,0.677-2.426,0.981-3.695
			c0.185-0.755,0.335-1.521,0.486-2.281c0.104-0.527,0.207-1.054,0.326-1.577c0.119-0.542,0.263-1.087,0.398-1.63
			c0.182-0.721,0.367-1.441,0.523-2.172c0.295-1.335,0.567-2.67,0.84-4.005c0.175-0.831,0.348-1.661,0.52-2.492
			c0.091-0.414,0.179-0.821,0.27-1.222c0.169-0.74,0.333-1.473,0.473-2.213c0.006-0.053,0.022-0.1,0.025-0.138
			c1.188-0.934,2.397-1.828,3.676-2.777c0.824-0.611,1.655-1.223,2.47-1.846c0.282-0.21,0.58-0.436,0.884-0.671
			c-0.022,0.094-0.041,0.185-0.056,0.279c-0.351,1.648-0.689,3.306-1.025,4.967c-0.066,0.335-0.113,0.668-0.16,1.003
			c-0.016,0.123-0.028,0.251-0.053,0.373c-0.135,0.602-0.279,1.204-0.42,1.802c-0.216,0.921-0.436,1.843-0.627,2.771
			c-0.144,0.674-0.26,1.357-0.376,2.041c-0.097,0.583-0.194,1.169-0.323,1.749l-0.079,0.36c-0.275,1.238-0.492,4.592-0.492,4.592
			c-0.022,0.42-2.197,12.045-2.25,12.361l-0.567,1.937c-0.473,1.62-0.95,3.241-1.41,4.864c-0.436,1.555-0.856,3.106-1.276,4.664
			l-0.482,1.755l-0.521,1.943c-0.385,1.42-0.768,2.84-1.166,4.259c-0.038,0.126-0.062,0.207-0.078,0.254
			c-0.37,0.555-0.758,1.101-1.147,1.649c-0.32,0.447-0.646,0.902-0.956,1.356c-0.661,0.966-1.313,1.931-1.968,2.896
			c-0.667,0.993-1.345,1.986-2.019,2.978c-0.702,1.019-1.407,2.027-2.109,3.037c-0.486,0.695-0.972,1.397-1.454,2.093l-0.736,1.066
			c-0.799,1.146-1.627,2.335-2.423,3.561c-0.943,1.457-1.881,2.983-2.868,4.679c-0.483,0.821-0.728,1.602-0.89,2.119
			c-0.032,0.1-0.063,0.203-0.101,0.301c-0.363,1.003-0.395,2.091-0.1,3.1c0.172,1.498,0.89,2.939,2.075,4.121
			c1.495,1.495,3.495,2.354,5.494,2.354c1.404,0,2.746-0.414,3.88-1.204c0.733-0.504,1.429-1.062,2.065-1.658
			c2.05-1.921,3.636-4.018,5.174-6.042c0.417-0.546,0.834-1.101,1.263-1.648l0.272-0.339c0.238-0.304,0.477-0.611,0.708-0.925
			c0.285-0.392,0.57-0.783,0.85-1.179c0.407-0.576,0.815-1.149,1.244-1.717c0.439-0.58,0.884-1.145,1.329-1.712
			c0.555-0.705,1.109-1.413,1.648-2.131c0.58-0.777,1.138-1.564,1.695-2.351c0.373-0.53,0.749-1.054,1.125-1.573
			c0.191-0.264,0.379-0.521,0.567-0.771c1.084-1.457,2.31-3.109,3.171-5.215c0.207-0.518,0.411-1.028,0.615-1.539
			c0.172-0.438,0.348-0.878,0.523-1.313c0.182-0.461,0.373-0.925,0.571-1.392c0.326-0.79,0.652-1.579,0.965-2.372
			c0.407-1.047,0.812-2.094,1.216-3.147c0.452-1.175,0.903-2.344,1.367-3.51c0.304,0.489,0.611,0.978,0.915,1.464
			c0.596,0.956,1.188,1.911,1.793,2.861c0.329,0.517,0.68,1.021,1.028,1.523c0.285,0.407,0.567,0.812,0.831,1.231
			c0.499,0.78,0.975,1.57,1.46,2.356c0.567,0.928,1.135,1.855,1.718,2.768c0.441,0.696,0.909,1.373,1.376,2.053
			c0.395,0.577,0.796,1.154,1.172,1.743c0.599,0.931,1.179,1.868,1.762,2.809c0.633,1.015,1.266,2.033,1.915,3.04
			c0.94,1.464,1.915,2.905,2.883,4.347l0.564,0.84l0.705,1.057c1.081,1.614,2.163,3.229,3.27,4.82
			c0.216,0.311,0.423,0.633,0.623,0.956c0.712,1.115,1.586,2.488,2.934,3.724l0.004,0.003c0.206,0.251,0.426,0.498,0.658,0.724
			c1.062,1.041,3.278,3.206,6.676,3.206c0.423,0,0.858-0.031,1.281-0.103c1.304-0.207,2.335-0.728,3.021-1.069
			c0.132-0.069,0.264-0.138,0.398-0.194c1.226-0.555,3.366-1.98,3.921-5.341c0.385-2.3,0.06-4.651-0.919-6.604
			c-0.837-1.674-1.768-3.219-2.67-4.714c-0.298-0.498-0.602-1-0.899-1.501c-0.521-0.884-1.057-1.768-1.589-2.646l-0.59-0.965
			l-0.523-0.872c-0.485-0.793-0.962-1.586-1.451-2.375c-0.429-0.69-0.858-1.376-1.291-2.062c-0.43-0.681-0.858-1.354-1.278-2.037
			c-0.36-0.58-0.709-1.153-1.057-1.73c-0.342-0.567-0.689-1.135-1.037-1.695c-0.37-0.602-0.746-1.191-1.116-1.783
			c-0.438-0.693-0.874-1.383-1.304-2.081c-0.542-0.891-1.081-1.79-1.623-2.689c-0.383-0.633-0.756-1.267-1.142-1.896
			c-0.614-1.016-1.234-2.027-1.846-3.037l-1.771-2.908c-0.245-0.398-0.483-0.793-0.718-1.188c-0.389-0.662-0.784-1.32-1.191-1.972
			c-0.417-0.665-0.843-1.329-1.272-1.99c-0.433-0.671-0.865-1.339-1.288-2.016l-0.298-0.482c-1.146-1.85-2.338-3.761-3.444-5.642
			l-0.094-0.157c0.037-0.206,0.072-0.413,0.1-0.62c0.113-0.687,0.22-1.329,0.342-1.925c0.308-1.41,0.64-2.817,0.972-4.222
			l0.404-1.721l0.088-0.348c0.075-0.298,0.15-0.595,0.213-0.896c0.088-0.42,0.173-0.847,0.254-1.27
			c0.132-0.655,0.261-1.31,0.411-1.962c0.088-0.379,0.197-0.759,0.301-1.141c0.041-0.135,0.075-0.276,0.112-0.414
			c0.126,0.179,0.254,0.364,0.417,0.552c0.213,0.254,0.474,0.648,0.749,1.069c0.894,1.37,2.122,3.244,4.473,4.554
			c1.687,0.94,3.328,1.592,4.918,2.219c0.451,0.179,0.902,0.357,1.354,0.539c1.031,0.43,2.024,0.756,2.987,1.066
			c0.545,0.178,1.097,0.356,1.639,0.555c1.041,0.379,2.078,0.78,3.112,1.182c0.643,0.25,1.279,0.501,1.922,0.739l0.561,0.213
			c1.278,0.489,2.561,0.975,3.855,1.433c0.745,0.263,1.451,0.467,2.012,0.633l0.518,0.153c0.467,0.145,0.955,0.217,1.444,0.217
			c4.407,0,6.673-2.853,6.983-5.683C144.606,102.296,142.516,98.792,139.93,97.708z M90.5,128.765
			c-0.521,1.312-1.028,2.626-1.536,3.942c-0.389,1.013-0.777,2.021-1.175,3.031c-0.301,0.768-0.614,1.529-0.928,2.291l-1.721,4.271
			c-0.689,1.692-1.73,3.087-2.733,4.438l-0.589,0.802c-0.398,0.546-0.787,1.091-1.175,1.637c-0.533,0.758-1.069,1.51-1.621,2.253
			c-0.523,0.699-1.062,1.386-1.602,2.068c-0.455,0.587-0.915,1.169-1.36,1.762c-0.451,0.596-0.887,1.203-1.322,1.814
			c-0.267,0.376-0.536,0.756-0.809,1.129c-0.198,0.27-0.401,0.529-0.615,0.789l-0.294,0.377c-0.445,0.566-0.871,1.134-1.304,1.701
			c-1.445,1.906-2.943,3.874-4.773,5.589c-0.511,0.482-1.072,0.931-1.655,1.335c-0.545,0.373-1.188,0.573-1.868,0.573
			c-1.047,0-2.169-0.488-2.993-1.316c-0.583-0.583-0.943-1.254-1.053-1.928l-0.417-0.159l0.32-1.423
			c0.056-0.147,0.106-0.305,0.153-0.458c0.138-0.426,0.292-0.912,0.564-1.392c0.956-1.633,1.862-3.115,2.78-4.528
			c0.762-1.17,1.561-2.316,2.357-3.464l2.181-3.144c0.715-1.021,1.429-2.047,2.131-3.078c0.68-0.987,1.351-1.978,2.019-2.968
			c0.658-0.972,1.313-1.943,1.971-2.908c0.298-0.43,0.605-0.859,0.909-1.282c0.455-0.636,0.909-1.272,1.332-1.928
			c0.188-0.288,0.323-0.718,0.429-1.1c0.411-1.433,0.796-2.877,1.188-4.322l0.994-3.67c0.414-1.539,0.833-3.081,1.266-4.613
			c0.458-1.611,0.928-3.219,1.401-4.827l0.646-2.213c0.013-0.138,0.621-5.691,0.621-5.691s4.325,6.616,4.946,7.594
			c1.038,1.624,2.069,3.247,3.144,4.843C91.466,126.313,90.839,127.908,90.5,128.765z M107.544,78.385l-0.037,0.213
			c-0.191,0.969-0.411,1.937-0.63,2.899l-0.665,3c-0.226,1.041-0.457,2.078-0.68,3.118l-0.495,2.304
			c-0.257,1.213-0.515,2.426-0.787,3.636c-0.119,0.514-0.26,1.019-0.397,1.523c-0.126,0.438-0.248,0.875-0.352,1.313
			c-0.16,0.683-0.298,1.376-0.43,2.065l-0.25,1.238c-0.054,0.254-0.113,0.511-0.182,0.768l-0.502,2.097
			c-0.339,1.429-0.677,2.861-0.987,4.3c-0.145,0.692-0.26,1.397-0.373,2.1c-0.075,0.468-0.147,0.938-0.235,1.404
			c-0.079,0.442,0.172,0.891,0.58,1.58l0.085,0.147c1.125,1.905,2.288,3.776,3.454,5.65l0.338,0.555
			c0.433,0.684,0.871,1.36,1.304,2.041c0.424,0.657,0.85,1.315,1.264,1.974c0.397,0.627,0.773,1.267,1.153,1.906l5.491,9.061
			c0.542,0.902,1.081,1.803,1.633,2.699c0.436,0.705,0.877,1.407,1.325,2.115c0.364,0.586,0.73,1.169,1.094,1.752
			c0.336,0.542,0.665,1.088,0.994,1.63c0.366,0.602,0.733,1.2,1.104,1.799c0.448,0.728,0.902,1.448,1.356,2.166l1.213,1.934
			c0.448,0.728,0.888,1.451,1.329,2.178l1.285,2.122c0.505,0.828,1.006,1.658,1.501,2.498c0.301,0.511,0.611,1.021,0.919,1.533
			c0.868,1.435,1.758,2.914,2.535,4.46c0.646,1.291,0.853,2.87,0.593,4.447c-0.223,1.319-0.856,2.225-1.887,2.686
			c-0.173,0.078-0.345,0.166-0.521,0.254c-0.58,0.295-1.241,0.624-2.013,0.746c-0.241,0.041-0.482,0.06-0.714,0.06
			c-1.956,0-3.311-1.326-4.206-2.2c-0.142-0.141-0.279-0.298-0.408-0.458c-0.075-0.084-0.144-0.175-0.226-0.25
			c-1.062-0.935-1.765-2.041-2.444-3.109c-0.226-0.363-0.461-0.728-0.702-1.081c-1.1-1.577-2.172-3.179-3.244-4.78l-1.103-1.642
			c-1.013-1.505-2.025-3.009-3.009-4.532c-0.637-0.994-1.261-1.997-1.881-2.993c-0.596-0.953-1.185-1.906-1.793-2.853
			c-0.401-0.623-0.818-1.231-1.234-1.843c-0.445-0.643-0.888-1.288-1.311-1.943c-0.564-0.887-1.112-1.786-1.661-2.683
			c-0.498-0.812-0.993-1.627-1.508-2.433c-0.291-0.464-0.608-0.918-0.921-1.366c-0.319-0.461-0.642-0.925-0.943-1.397
			c-0.604-0.943-1.194-1.899-1.783-2.853c-0.489-0.786-0.978-1.576-1.476-2.356c-0.755-1.197-1.53-2.386-2.304-3.573l-1.454-2.241
			c-0.643-0.978-1.282-1.962-1.909-2.952c-1.204-1.887-2.382-3.78-3.551-5.683c-0.153-0.244-0.307-0.485-0.461-0.727
			c-0.517-0.812-1.056-1.646-1.454-2.592c-0.426-1.025-0.655-2.075-0.871-3.091l-0.135-0.614c-0.097-0.438-0.075-0.834-0.053-1.15
			c0.003-0.116,0.016-0.231,0.003-0.348c-0.113-1.326,0.147-2.517,0.407-3.673l0.085-0.389c0.135-0.63,0.244-1.27,0.348-1.906
			c0.113-0.636,0.216-1.269,0.351-1.902c0.185-0.887,0.398-1.771,0.602-2.655c0.15-0.621,0.292-1.244,0.436-1.868
			c0.05-0.226,0.078-0.452,0.106-0.674c0.038-0.26,0.072-0.521,0.122-0.781c0.335-1.648,0.674-3.294,1.019-4.939
			c0.11-0.517,0.223-1.034,0.335-1.545c0.21-0.959,0.417-1.918,0.596-2.88c0.128-0.693,0.185-1.338,0.16-1.915
			c-0.038-0.251-0.665-0.821-1.122-0.855c-0.765-0.066-1.463,0.147-2.153,0.721c-1.414,1.175-2.918,2.316-4.244,3.325
			c-0.796,0.602-1.602,1.197-2.4,1.793c-1.367,1.009-2.727,2.021-4.056,3.071c-0.533,0.42-0.875,1.094-1.062,2.062
			c-0.129,0.702-0.285,1.392-0.442,2.09c-0.094,0.42-0.188,0.84-0.279,1.26l-0.504,2.444c-0.279,1.345-0.555,2.686-0.85,4.031
			c-0.15,0.699-0.323,1.392-0.501,2.09c-0.144,0.562-0.285,1.125-0.414,1.692c-0.125,0.546-0.235,1.101-0.345,1.652
			c-0.144,0.721-0.288,1.441-0.455,2.152c-0.288,1.188-0.617,2.367-0.943,3.542l-0.216,0.777c-0.197,0.687-0.768,1.389-1.608,1.438
			c-0.169,0.007-0.338,0.025-0.504,0.041c-0.865,0.085-1.689,0.085-2.326-0.179c-1.138-0.477-1.743-1.915-1.808-2.786
			c-0.069-0.881,0.097-1.728,0.244-2.47l0.094-0.521c0.172-0.959,0.357-1.905,0.545-2.853l0.332-1.686
			c0.084-0.427,0.169-0.859,0.245-1.285l0.479-2.702c0.301-1.696,0.599-3.395,0.918-5.087c0.188-1.012,0.407-2.019,0.626-3.021
			c0.157-0.708,0.311-1.417,0.452-2.125c0.125-0.614,0.235-1.231,0.348-1.846c0.091-0.517,0.185-1.038,0.282-1.555
			c0.342-1.758,1.564-2.799,2.551-3.633c0.812-0.692,1.58-1.332,2.338-1.974l1.714-1.436c0.89-0.743,1.78-1.486,2.661-2.235
			c0.636-0.539,1.266-1.081,1.899-1.624c0.699-0.599,1.398-1.197,2.1-1.796c1.414-1.194,2.831-2.382,4.253-3.57l1.26-1.062
			c0.542-0.47,1.084-0.94,1.658-1.37c1.445-1.078,3.447-2.576,6.228-2.307c0.595,0.056,1.213,0.038,1.833,0.025
			c0.692-0.019,1.395-0.012,2.094-0.003c0.805,0.009,1.607,0.022,2.419-0.022c1.536-0.097,3.009,0.501,4.288,1.746
			c0.85,0.828,1.671,1.78,2.595,3c0.809,1.069,1.248,2.26,1.298,3.542c0.01,0.207,0.06,0.414,0.104,0.624
			c0.091,0.438,0.207,0.99,0.141,1.595C108.096,75.627,107.816,77.028,107.544,78.385z M137.359,107.21l-0.438-0.062l-0.552-0.163
			c-0.545-0.159-1.193-0.348-1.833-0.573c-1.295-0.461-2.576-0.946-3.861-1.433l-2.389-0.918c-1.053-0.407-2.109-0.818-3.169-1.207
			c-0.582-0.213-1.175-0.404-1.764-0.595c-0.894-0.292-1.821-0.596-2.733-0.969c-0.477-0.194-0.949-0.386-1.43-0.574
			c-1.47-0.583-2.989-1.182-4.463-2.002c-1.592-0.89-2.463-2.222-3.237-3.404c-0.335-0.511-0.652-1-1.009-1.417
			c-0.223-0.27-0.411-0.564-0.596-0.858c-0.106-0.182-0.214-0.367-0.352-0.521c-1.555-1.743-1.062-3.617-0.702-4.983l0.072-0.282
			c0.176-0.68,0.308-1.37,0.442-2.059c0.104-0.52,0.21-1.041,0.325-1.555c0.092-0.426,1.467-6.497,1.467-6.497
			s2.031,5.463,2.282,5.974c0.426,0.88,0.824,1.758,1.219,2.639c0.264,0.57,0.521,1.141,0.79,1.708
			c0.235,0.508,0.479,1.009,0.73,1.514c0.451,0.921,0.902,1.843,1.301,2.79c0.22,0.52,0.651,0.746,1.583,1.144
			c0.329,0.141,0.664,0.26,0.999,0.376c0.386,0.135,0.771,0.272,1.145,0.426c0.549,0.229,1.088,0.476,1.63,0.721
			c0.473,0.213,0.94,0.426,1.413,0.627c1.254,0.533,2.514,1.05,3.773,1.567l2.251,0.912c0.908,0.367,1.812,0.727,2.708,1.1
			c1.874,0.771,3.735,1.555,5.598,2.335c1.128,0.473,2.359,2.517,2.231,3.708C140.654,105.903,139.688,107.21,137.359,107.21z"/>
		<path fill="#FFFFFF" d="M94.475,44.665c0.294,2.401,1.414,4.629,3.238,6.438c2.253,2.231,5.034,3.413,8.045,3.413
			c0.646,0,1.298-0.056,1.943-0.157c2.435-0.382,4.582-1.551,6.562-3.573c0.774-0.787,1.414-1.665,1.906-2.598
			c0.824-1.561,1.25-3.285,1.216-5.049c0-0.003,0-0.003,0-0.003c-0.028-1.633-0.348-3.159-0.915-4.535
			c-1.417-3.438-4.379-5.942-8.23-6.842c-0.771-0.179-1.58-0.294-2.413-0.342l-0.088-0.003l-0.082,0.003
			c-3.46,0.213-6.315,1.577-8.475,4.062c-1.946,2.247-2.89,4.893-2.805,7.886C94.39,43.79,94.421,44.226,94.475,44.665z"/>
		<path fill="#FFFFFF" d="M87.166,119.75c-0.621-0.978-4.946-7.594-4.946-7.594s-0.608,5.554-0.621,5.691l-0.646,2.213
			c-0.473,1.608-0.943,3.216-1.401,4.827c-0.433,1.532-0.853,3.074-1.266,4.613l-0.994,3.67c-0.392,1.445-0.777,2.89-1.188,4.322
			c-0.106,0.382-0.241,0.812-0.429,1.1c-0.423,0.655-0.877,1.292-1.332,1.928c-0.304,0.423-0.611,0.853-0.909,1.282
			c-0.658,0.965-1.313,1.937-1.971,2.908c-0.667,0.99-1.338,1.98-2.019,2.968c-0.702,1.031-1.417,2.057-2.131,3.078l-2.181,3.144
			c-0.796,1.147-1.595,2.294-2.357,3.464c-0.918,1.413-1.824,2.896-2.78,4.528c-0.272,0.479-0.426,0.966-0.564,1.392
			c-0.047,0.153-0.097,0.311-0.153,0.458l-0.32,1.423l0.417,0.159c0.109,0.674,0.47,1.345,1.053,1.928
			c0.824,0.828,1.946,1.316,2.993,1.316c0.68,0,1.323-0.2,1.868-0.573c0.583-0.404,1.144-0.853,1.655-1.335
			c1.831-1.715,3.329-3.683,4.773-5.589c0.433-0.567,0.859-1.135,1.304-1.701l0.294-0.377c0.213-0.26,0.417-0.52,0.615-0.789
			c0.272-0.373,0.542-0.753,0.809-1.129c0.436-0.611,0.871-1.219,1.322-1.814c0.445-0.593,0.906-1.175,1.36-1.762
			c0.539-0.683,1.078-1.369,1.602-2.068c0.552-0.743,1.088-1.495,1.621-2.253c0.389-0.546,0.777-1.091,1.175-1.637l0.589-0.802
			c1.003-1.352,2.043-2.746,2.733-4.438l1.721-4.271c0.313-0.762,0.626-1.523,0.928-2.291c0.398-1.01,0.787-2.019,1.175-3.031
			c0.508-1.316,1.015-2.63,1.536-3.942c0.338-0.856,0.965-2.451-0.191-4.172C89.234,122.997,88.203,121.374,87.166,119.75z"/>
		<path fill="#FFFFFF" d="M108.005,71.982c-0.05-1.282-0.489-2.473-1.298-3.542c-0.924-1.219-1.745-2.172-2.595-3
			c-1.278-1.244-2.752-1.843-4.288-1.746c-0.812,0.044-1.614,0.031-2.419,0.022c-0.699-0.009-1.401-0.016-2.094,0.003
			c-0.621,0.013-1.238,0.031-1.833-0.025c-2.78-0.27-4.783,1.229-6.228,2.307c-0.574,0.43-1.116,0.899-1.658,1.37l-1.26,1.062
			c-1.423,1.188-2.84,2.376-4.253,3.57c-0.702,0.599-1.401,1.197-2.1,1.796c-0.633,0.542-1.263,1.084-1.899,1.624
			c-0.881,0.749-1.771,1.492-2.661,2.235l-1.714,1.436c-0.758,0.642-1.526,1.282-2.338,1.974c-0.987,0.834-2.209,1.875-2.551,3.633
			c-0.097,0.517-0.191,1.038-0.282,1.555c-0.113,0.614-0.223,1.231-0.348,1.846c-0.141,0.708-0.295,1.417-0.452,2.125
			c-0.219,1.003-0.438,2.009-0.626,3.021c-0.32,1.692-0.618,3.391-0.918,5.087l-0.479,2.702c-0.075,0.426-0.16,0.858-0.245,1.285
			l-0.332,1.686c-0.188,0.947-0.373,1.894-0.545,2.853l-0.094,0.521c-0.147,0.742-0.313,1.589-0.244,2.47
			c0.065,0.871,0.67,2.31,1.808,2.786c0.636,0.264,1.46,0.264,2.326,0.179c0.166-0.016,0.335-0.034,0.504-0.041
			c0.84-0.05,1.411-0.752,1.608-1.438l0.216-0.777c0.326-1.175,0.655-2.354,0.943-3.542c0.167-0.711,0.311-1.432,0.455-2.152
			c0.11-0.552,0.219-1.106,0.345-1.652c0.128-0.567,0.27-1.131,0.414-1.692c0.179-0.699,0.351-1.392,0.501-2.09
			c0.295-1.345,0.571-2.686,0.85-4.031l0.504-2.444c0.091-0.42,0.185-0.84,0.279-1.26c0.157-0.699,0.313-1.388,0.442-2.09
			c0.188-0.968,0.529-1.643,1.062-2.062c1.329-1.05,2.689-2.062,4.056-3.071c0.799-0.596,1.604-1.191,2.4-1.793
			c1.326-1.009,2.831-2.15,4.244-3.325c0.689-0.574,1.388-0.787,2.153-0.721c0.458,0.034,1.084,0.604,1.122,0.855
			c0.025,0.577-0.031,1.222-0.16,1.915c-0.179,0.962-0.386,1.921-0.596,2.88c-0.113,0.511-0.226,1.028-0.335,1.545
			c-0.345,1.646-0.683,3.291-1.019,4.939c-0.05,0.26-0.084,0.521-0.122,0.781c-0.028,0.222-0.057,0.448-0.106,0.674
			c-0.144,0.624-0.285,1.247-0.436,1.868c-0.204,0.884-0.417,1.768-0.602,2.655c-0.135,0.633-0.238,1.266-0.351,1.902
			c-0.104,0.636-0.213,1.276-0.348,1.906l-0.085,0.389c-0.26,1.157-0.52,2.347-0.407,3.673c0.013,0.116,0,0.231-0.003,0.348
			c-0.022,0.316-0.044,0.712,0.053,1.15l0.135,0.614c0.216,1.016,0.445,2.065,0.871,3.091c0.398,0.946,0.937,1.779,1.454,2.592
			c0.154,0.241,0.308,0.482,0.461,0.727c1.169,1.902,2.348,3.796,3.551,5.683c0.626,0.99,1.266,1.975,1.909,2.952l1.454,2.241
			c0.774,1.188,1.548,2.376,2.304,3.573c0.498,0.78,0.987,1.57,1.476,2.356c0.589,0.953,1.179,1.909,1.783,2.853
			c0.301,0.473,0.624,0.937,0.943,1.397c0.313,0.448,0.63,0.902,0.921,1.366c0.515,0.806,1.01,1.621,1.508,2.433
			c0.549,0.896,1.097,1.796,1.661,2.683c0.423,0.655,0.865,1.301,1.311,1.943c0.416,0.611,0.833,1.22,1.234,1.843
			c0.608,0.946,1.197,1.899,1.793,2.853c0.62,0.996,1.244,1.999,1.881,2.993c0.983,1.523,1.996,3.027,3.009,4.532l1.103,1.642
			c1.072,1.602,2.145,3.203,3.244,4.78c0.241,0.354,0.477,0.718,0.702,1.081c0.68,1.068,1.382,2.175,2.444,3.109
			c0.082,0.075,0.15,0.166,0.226,0.25c0.129,0.16,0.267,0.317,0.408,0.458c0.896,0.874,2.25,2.2,4.206,2.2
			c0.231,0,0.473-0.019,0.714-0.06c0.771-0.122,1.433-0.451,2.013-0.746c0.176-0.088,0.348-0.176,0.521-0.254
			c1.03-0.461,1.664-1.366,1.887-2.686c0.26-1.577,0.053-3.156-0.593-4.447c-0.777-1.546-1.667-3.025-2.535-4.46
			c-0.308-0.512-0.618-1.022-0.919-1.533c-0.495-0.84-0.996-1.67-1.501-2.498l-1.285-2.122c-0.441-0.727-0.881-1.45-1.329-2.178
			l-1.213-1.934c-0.454-0.718-0.908-1.438-1.356-2.166c-0.37-0.599-0.737-1.197-1.104-1.799c-0.329-0.542-0.658-1.088-0.994-1.63
			c-0.363-0.583-0.729-1.166-1.094-1.752c-0.448-0.708-0.89-1.41-1.325-2.115c-0.552-0.896-1.091-1.797-1.633-2.699l-5.491-9.061
			c-0.38-0.64-0.756-1.279-1.153-1.906c-0.414-0.658-0.84-1.316-1.264-1.974c-0.433-0.681-0.871-1.357-1.304-2.041l-0.338-0.555
			c-1.166-1.874-2.329-3.745-3.454-5.65l-0.085-0.147c-0.407-0.689-0.658-1.138-0.58-1.58c0.088-0.467,0.16-0.937,0.235-1.404
			c0.113-0.702,0.229-1.407,0.373-2.1c0.311-1.438,0.648-2.871,0.987-4.3l0.502-2.097c0.068-0.257,0.128-0.514,0.182-0.768
			l0.25-1.238c0.132-0.689,0.27-1.382,0.43-2.065c0.104-0.438,0.226-0.875,0.352-1.313c0.138-0.505,0.278-1.009,0.397-1.523
			c0.272-1.21,0.53-2.423,0.787-3.636l0.495-2.304c0.223-1.041,0.454-2.078,0.68-3.118l0.665-3c0.219-0.962,0.438-1.931,0.63-2.899
			l0.037-0.213c0.272-1.357,0.552-2.758,0.705-4.184c0.066-0.605-0.05-1.157-0.141-1.595
			C108.064,72.396,108.015,72.189,108.005,71.982z"/>
		<path fill="#FFFFFF" d="M138.561,100.97c-1.862-0.78-3.724-1.564-5.598-2.335c-0.896-0.373-1.8-0.733-2.708-1.1l-2.251-0.912
			c-1.26-0.517-2.52-1.034-3.773-1.567c-0.473-0.201-0.94-0.414-1.413-0.627c-0.542-0.245-1.081-0.492-1.63-0.721
			c-0.373-0.154-0.759-0.292-1.145-0.426c-0.335-0.116-0.67-0.235-0.999-0.376c-0.932-0.398-1.363-0.624-1.583-1.144
			c-0.398-0.947-0.85-1.868-1.301-2.79c-0.251-0.505-0.495-1.006-0.73-1.514c-0.27-0.567-0.526-1.138-0.79-1.708
			c-0.395-0.88-0.793-1.758-1.219-2.639c-0.251-0.511-2.282-5.974-2.282-5.974s-1.375,6.071-1.467,6.497
			c-0.115,0.514-0.222,1.035-0.325,1.555c-0.135,0.689-0.267,1.379-0.442,2.059l-0.072,0.282c-0.36,1.367-0.853,3.241,0.702,4.983
			c0.138,0.154,0.245,0.338,0.352,0.521c0.185,0.294,0.373,0.589,0.596,0.858c0.356,0.417,0.674,0.906,1.009,1.417
			c0.774,1.182,1.646,2.514,3.237,3.404c1.474,0.821,2.993,1.419,4.463,2.002c0.48,0.188,0.953,0.379,1.43,0.574
			c0.912,0.373,1.84,0.677,2.733,0.969c0.589,0.19,1.182,0.382,1.764,0.595c1.06,0.389,2.116,0.8,3.169,1.207l2.389,0.918
			c1.285,0.486,2.566,0.972,3.861,1.433c0.64,0.226,1.288,0.414,1.833,0.573l0.552,0.163l0.438,0.062
			c2.329,0,3.295-1.307,3.433-2.532C140.92,103.487,139.688,101.443,138.561,100.97z"/>
	</g>
</g>
</svg>
