<?xml version="1.0" encoding="utf-8"?>
<!-- Generator: Adobe Illustrator 16.0.0, SVG Export Plug-In . SVG Version: 6.00 Build 0)  -->
<!DOCTYPE svg PUBLIC "-//W3C//DTD SVG 1.1//EN" "http://www.w3.org/Graphics/SVG/1.1/DTD/svg11.dtd">
<svg version="1.1" id="Layer_1" xmlns="http://www.w3.org/2000/svg" xmlns:xlink="http://www.w3.org/1999/xlink" x="0px" y="0px"
	 width="531px" height="203px" viewBox="0 0 531 203" enable-background="new 0 0 531 203" xml:space="preserve">
<g>
	<path fill="#DC1658" d="M357.881,152.456v-11.36h-0.061h-16.444l-0.058-71.741v-0.03h16.502V58v-0.025h-16.502V28.575v-0.019
		h-12.717v0.019v29.399h-11.355V58v11.324h11.355v0.03l0.059,72.132c0,7.312,3.621,10.97,10.865,10.97h18.295H357.881z"/>
	<path fill="#DC1658" d="M115.404,152.456h0.059l-0.059-84.459v-0.029c0-7.046-3.587-10.582-10.768-10.582
		c-4.022,0-9.124,0.393-15.338,1.171c-5.112,0.705-10.196,1.38-15.237,2.033V58v-0.025H61.139V58l0.053,94.456h12.87h0.045
		l-0.045-82.131v-0.022l28.433-0.772v0.016l0.06,82.91H115.404z"/>
	<path fill="#DC1658" d="M143.699,79.364h0.006c0.099-2.145,0.525-3.96,1.293-5.416c1.625-3.063,4.71-4.623,9.324-4.623h17.857
		l0.059,71.387c-5.433,0.338-9.619,0.587-12.636,0.75c-2.673,0.141-4.438,0.216-5.229,0.216c-7.122,0-10.68-3.621-10.68-10.873
		C143.693,130.805,143.681,79.69,143.699,79.364 M172.238,149.837v2.619h12.753h0.058L184.991,0.517V0.505H172.18v0.012v57.46
		h-0.007h-21.252c-5.762,0-10.546,1.92-14.366,5.771c-3.819,3.854-5.73,8.683-5.73,14.518v0.017l0.053,55.244
		c0,5.562,1.683,10.209,5.049,13.93c3.365,3.718,7.797,5.578,13.299,5.578c0.188,0,0.465-0.017,0.845-0.046
		c2.646-0.235,10.011-1.276,22.104-3.139C172.197,149.842,172.216,149.842,172.238,149.837"/>
</g>
<polygon fill="#DC1658" points="306.87,152.456 306.931,152.456 306.87,58 306.87,57.975 294.151,57.975 294.151,58 
	294.205,152.456 "/>
<polygon fill="#DC1658" points="231.751,0.501 231.751,0.52 231.797,152.453 244.662,152.453 244.713,152.453 244.662,104.307 
	270.732,152.453 284.758,152.453 284.809,152.453 255.335,100.135 282.82,58.36 282.82,58 282.82,57.977 268.938,57.977 
	244.662,97.014 244.662,97.001 244.662,0.52 244.662,0.501 "/>
<rect x="31.248" y="16.14" fill="#DC1658" width="13.108" height="23.445"/>
<g>
	<path fill="#DC1658" d="M492.046,67.997v-0.03c0-7.045-3.587-10.578-10.773-10.578c-3.688,0-8.77,0.423-15.246,1.263
		c-5.11,0.65-10.234,1.287-15.338,1.938V0.517V0.5h-12.915v0.017l0.061,151.939h12.854h0.049l-0.049-82.131v-0.022l28.452-0.775
		v0.02l0.049,82.909h12.856h0.049L492.046,67.997z"/>
</g>
<polygon fill="#DC1658" points="31.446,57.977 31.446,58 31.504,152.453 44.171,152.453 44.222,152.453 44.171,58 44.171,57.977 "/>
<g>
	<path fill="#DC1658" d="M421.783,120.031h-12.658h-0.059l0.059,21.064h-0.059h-26.755l-0.043-71.743v-0.028h26.798v0.028v18.425
		v0.019h0.059h12.658v-0.019V68.965v-0.02c0-7.319-3.619-10.978-10.876-10.978h-30.676c-7.245,0-10.868,3.658-10.868,10.978v0.02
		l0.048,72.521c0,7.312,3.624,10.97,10.878,10.97h30.618h0.059c7.244,0,10.863-3.657,10.863-10.97L421.783,120.031z"/>
</g>
<polygon fill="#DC1658" points="214.782,58 214.782,57.975 202.077,57.975 202.077,58 202.116,152.456 214.782,152.456 
	214.836,152.456 "/>
<g>
	<path fill="#DC1658" d="M203.136,181.229c-1.711,0-3.284,0.337-4.879,0.337h-2.294v0.687h0.768c0.85,0,1.119,0.577,1.119,1.312
		v11.894c0,0.718-0.478,1.528-1.364,1.528h-0.522v0.715h1.409c1.98,0,2.213-1.857,2.213-2.837v-11.919
		c1.1-0.523,2.817-0.523,3.319-0.523c4.909,0,6.032,4.576,6.032,7.058c0,3.405-1.386,7.198-4.844,7.198
		c-1.981,0-2.312-1.146-2.312-1.146s-1.072,0-1.072,0.906c0,0.856,1.124,1.434,3.15,1.434c5.402,0,6.982-5.246,6.982-8.392
		C210.841,187.093,210.102,181.229,203.136,181.229"/>
	<path fill="#DC1658" d="M179.879,182.252h0.839c0.738,0,1.093,0.577,1.093,1.409v10.965l-7.51-11.11
		c-0.78-1.14-1.352-1.95-3.169-1.95h-2.026v0.687h0.432c1.286,0,1.55,0.788,1.55,1.409v11.969c0,0.691-0.434,1.356-1.288,1.356h-0.6
		v0.715h5.625v-0.715h-0.733c-1.171,0-1.434-0.927-1.434-1.525v-11.104c0,0,8.246,11.964,8.869,12.774
		c0.38,0.523,0.927,0.739,1.333,0.739c0.432,0,1.095,0,1.503-0.479c-0.21,0-1.001-0.597-1.001-1.863v-12.081
		c0-0.502,0.269-1.195,1.171-1.195h0.669v-0.687h-5.322V182.252z"/>
	<path fill="#DC1658" d="M152.743,182.252h0.687c0.647,0,1.17,0.361,1.17,1.025v12.396c0,0.74-0.399,1.312-1.17,1.312h-0.663v0.715
		h5.387v-0.715h-0.671c-0.499,0-1.141-0.454-1.141-1.312v-12.396c0-0.545,0.429-1.025,1.024-1.025h0.787v-0.687h-5.41V182.252z"/>
	<path fill="#DC1658" d="M72.622,181.398c-0.693,0-4.5,0.113-5.003,0.113c-1.693,0-2.574-0.067-3.436-0.067
		c-0.764,0-1.688,0-2.213,0.262c-0.698,0.354-0.698,0.978-0.698,1.285c0,0.694,0.455,1.526,0.769,1.526
		c0.187-0.546,0.617-1.979,3.739-1.979c0.814,0,0.955,0.502,0.955,1.123v11.945c0,0.855-0.765,1.38-1.479,1.38h-0.812v0.715h6.367
		v-0.715h-0.886c-0.879,0-1.45-0.641-1.45-1.38v-12.045c0-0.5,0.191-0.999,0.902-0.999c1.455,0,3.652,0,3.652,2.387
		c0.831,0,0.925-1.72,0.925-2.387C73.955,182.061,73.723,181.398,72.622,181.398"/>
	<path fill="#DC1658" d="M123.092,193.864c0,0.4-0.81,2.768-3.937,2.768c-1.667,0-3.979-0.026-3.979-0.885v-5.89h2.406
		c1.07,0,1.525,0.433,1.525,1.07c0.67,0,1.525-0.687,1.525-1.378c0-0.356-0.186-0.907-1.38-0.907h-4.077v-5.003
		c0-1.026,2.15-1.172,3.697-1.172c2.691,0,3.454,0.932,3.454,3.075c0.787,0,1.402-0.979,1.402-1.857
		c-0.021-1.649-0.523-2.266-2.998-2.266c-1.216,0-4.606,0.146-5.771,0.146h-3.384v0.687h0.741c0.977,0,1.14,0.693,1.14,1.125v12.392
		c0,0.764-0.641,1.077-1.14,1.077h-0.793v0.855h8.151c2.317,0,4.701-0.407,4.701-2.456
		C124.379,194.534,123.784,193.864,123.092,193.864"/>
	<path fill="#DC1658" d="M94.615,182.252h0.857c0.598,0,1.024,0.432,1.024,1.22v4.599c0,0.121-0.047,0.407-0.379,0.407h-7.965
		c-0.311,0-0.311-0.432-0.311-0.432v-4.646c0-0.479,0.217-1.147,1.026-1.147h0.854v-0.687h-5.501v0.687h0.786
		c0.761,0,1.095,0.502,1.095,1.22v12.158c0,0.737-0.31,1.356-1.167,1.356h-0.714v0.715h5.501v-0.715h-0.734
		c-0.884,0-1.146-0.718-1.146-1.356v-5.41c0,0,0-0.408,0.311-0.408h7.965c0.332,0.044,0.379,0.24,0.379,0.43v5.389
		c0,0.26-0.093,1.356-1.264,1.356h-0.618v0.715h5.672v-0.715h-0.809c-0.956,0-1.241-0.74-1.241-1.356v-12.23
		c0-0.691,0.501-1.147,1.166-1.147h0.884v-0.687h-5.672V182.252z"/>
	<path fill="#DC1658" d="M405.048,182.252h0.851c0.602,0,1.031,0.432,1.031,1.22v4.599c0,0.121-0.054,0.407-0.383,0.407h-7.963
		c-0.312,0-0.312-0.432-0.312-0.432v-4.646c0-0.479,0.221-1.147,1.03-1.147h0.856v-0.687h-5.508v0.687h0.79
		c0.757,0,1.097,0.502,1.097,1.22v12.158c0,0.737-0.318,1.356-1.164,1.356h-0.723v0.715h5.508v-0.715h-0.74
		c-0.88,0-1.146-0.718-1.146-1.356v-5.41c0,0,0-0.408,0.312-0.408h7.963c0.329,0.044,0.383,0.24,0.383,0.43v5.389
		c0,0.26-0.1,1.356-1.264,1.356h-0.618v0.715h5.673v-0.715h-0.817c-0.956,0-1.232-0.74-1.232-1.356v-12.23
		c0-0.691,0.5-1.147,1.164-1.147h0.886v-0.687h-5.673V182.252z"/>
	<path fill="#DC1658" d="M377.784,182.517c2.403,0,4.123,0.715,4.123,3.626c0.048,0.021,0.116,0.021,0.187,0.021
		c0.478,0,1.271-0.575,1.271-1.955c0-2.003-2.173-2.935-5.532-2.935c-3.368,0-8.222,2.078-8.222,8.467
		c0,6.219,4.599,8.368,7.79,8.368c2.864,0,5.695-0.907,5.695-2.695c0-0.672-0.4-1.171-1.072-1.171
		c-1.048,1.955-2.479,2.627-4.739,2.627c-2.457,0-5.77-2.314-5.77-7.204C371.515,184.687,375.281,182.517,377.784,182.517"/>
	<path fill="#DC1658" d="M358.242,181.398c-0.687,0-4.509,0.113-5.008,0.113c-1.69,0-2.573-0.067-3.43-0.067
		c-0.762,0-1.695,0-2.22,0.262c-0.687,0.354-0.687,0.978-0.687,1.285c0,0.694,0.454,1.526,0.755,1.526
		c0.201-0.546,0.626-1.979,3.752-1.979c0.803,0,0.948,0.502,0.948,1.123v11.945c0,0.855-0.764,1.38-1.477,1.38h-0.808v0.715h6.361
		v-0.715h-0.881c-0.883,0-1.452-0.641-1.452-1.38v-12.045c0-0.5,0.185-0.999,0.904-0.999c1.45,0,3.647,0,3.647,2.387
		c0.832,0,0.93-1.72,0.93-2.387C359.579,182.061,359.336,181.398,358.242,181.398"/>
	<path fill="#DC1658" d="M221.986,182.252h0.692c0.643,0,1.164,0.361,1.164,1.025v12.396c0,0.74-0.405,1.312-1.164,1.312h-0.669
		v0.715h5.385v-0.715h-0.662c-0.5,0-1.147-0.454-1.147-1.312v-12.396c0-0.545,0.43-1.025,1.025-1.025h0.784v-0.687h-5.408V182.252z"
		/>
	<path fill="#DC1658" d="M456.798,182.252h0.835c0.744,0,1.094,0.577,1.094,1.409v10.965l-7.507-11.11
		c-0.783-1.14-1.355-1.95-3.17-1.95h-2.03v0.687h0.432c1.293,0,1.55,0.788,1.55,1.409v11.969c0,0.691-0.427,1.356-1.283,1.356
		h-0.599v0.715h5.627v-0.715h-0.74c-1.166,0-1.433-0.927-1.433-1.525v-11.104c0,0,8.248,11.964,8.874,12.774
		c0.379,0.523,0.927,0.739,1.332,0.739c0.427,0,1.099,0,1.496-0.479c-0.206,0-0.994-0.597-0.994-1.863v-12.081
		c0-0.502,0.264-1.195,1.169-1.195h0.664v-0.687h-5.316V182.252z"/>
	<path fill="#DC1658" d="M433.524,193.864c0,0.4-0.815,2.768-3.937,2.768c-1.666,0-3.982-0.026-3.982-0.885v-5.89h2.408
		c1.072,0,1.528,0.433,1.528,1.07c0.662,0,1.525-0.687,1.525-1.378c0-0.356-0.191-0.907-1.388-0.907h-4.074v-5.003
		c0-1.026,2.146-1.172,3.696-1.172c2.694,0,3.456,0.932,3.456,3.075c0.791,0,1.406-0.979,1.406-1.857
		c-0.023-1.649-0.523-2.266-3.005-2.266c-1.21,0-4.601,0.146-5.765,0.146h-3.391v0.687h0.739c0.979,0,1.149,0.693,1.149,1.125
		v12.392c0,0.764-0.645,1.077-1.149,1.077h-0.783v0.855h8.151c2.319,0,4.693-0.407,4.693-2.456
		C434.805,194.534,434.211,193.864,433.524,193.864"/>
	<path fill="#DC1658" d="M331.083,182.252h0.687c0.647,0,1.171,0.361,1.171,1.025v12.396c0,0.74-0.399,1.312-1.171,1.312h-0.665
		v0.715h5.39v-0.715h-0.675c-0.497,0-1.137-0.454-1.137-1.312v-12.396c0-0.545,0.429-1.025,1.023-1.025h0.788v-0.687h-5.411V182.252
		z"/>
	<path fill="#DC1658" d="M272.571,182.252h0.834c0.74,0,1.095,0.577,1.095,1.409v10.965l-7.508-11.11
		c-0.791-1.14-1.361-1.95-3.172-1.95h-2.027v0.687h0.43c1.287,0,1.55,0.788,1.55,1.409v11.969c0,0.691-0.424,1.356-1.286,1.356
		h-0.595v0.715h5.626v-0.715h-0.741c-1.17,0-1.432-0.927-1.432-1.525v-11.104c0,0,8.251,11.964,8.869,12.774
		c0.386,0.523,0.932,0.739,1.339,0.739c0.426,0,1.096,0,1.495-0.479c-0.214,0-0.994-0.597-0.994-1.863v-12.081
		c0-0.502,0.256-1.195,1.164-1.195h0.664v-0.687h-5.311V182.252z"/>
	<path fill="#DC1658" d="M241.616,191.005c1.857-3.696,2.596-5.815,3.005-6.771c0.803,2.219,1.595,4.553,2.429,6.771H241.616z
		 M250.525,195.606c0,0-3.932-10.825-4.263-11.78c-0.477-1.334-1.095-2.598-2.598-2.598c-0.884,0-1.314,0.478-1.314,0.715
		c0.191,0.024,0.884,0.148,0.884,1.196c0,1.31-2.003,5.433-4.245,9.869c-0.616,1.21-1.309,2.551-1.309,3.553
		c0,0.425,0.116,1.548,1.239,1.548c0.979,0,1.379-0.454,1.379-0.575c-0.354-0.024-0.593-0.572-0.593-1.429
		c0-0.86,0.739-2.595,1.286-3.742h6.504c0.197,0.5,0.908,2.573,1.223,3.459c0.071,0.187,0.095,0.354,0.095,0.523
		c0,0.332-0.263,0.616-0.716,0.641h-0.571v0.715h5.146v-0.715h-0.6C251.673,196.986,250.887,196.583,250.525,195.606"/>
	<path fill="#DC1658" d="M316.764,192.863c-0.951-2.074-2.743-3.435-3.815-3.648c1.55-0.075,3.937-4.409,4.623-5.481
		c0.432-0.693,1.004-1.479,1.841-1.479h0.356v-0.688h-4.555v0.688h0.356c0.453,0.022,0.599,0.192,0.599,0.454
		c0,0.191-0.051,0.354-0.191,0.669c-0.049,0.117-1.434,2.475-2.192,3.526c-0.575,0.811-1.669,1.86-3.432,1.86h-1.288v-5.411
		c0-0.453,0.216-0.931,0.927-0.931h0.647v-0.856h-5.203v0.856h0.842c0.638,0,1.067,0.332,1.067,0.931v12.467
		c0,0.667-0.638,1.167-1.21,1.167h-0.699v0.715h5.368v-0.715h-0.791c-0.711,0-0.948-0.74-0.948-1.167v-5.151
		c0-0.502,0.715-0.662,1.574-0.662c2.811,0,4.406,3.214,5.408,5.236c0.791,1.55,1.339,2.629,2.573,2.629
		c0.91,0,1.412-0.312,1.412-0.979v-0.146C319.099,196.746,318.027,195.461,316.764,192.863"/>
</g>
<polygon fill="#DC1658" points="506.441,144.915 509.283,144.915 509.283,152.473 510.414,152.473 510.414,144.915 513.254,144.915 
	513.254,143.96 506.441,143.96 "/>
<polygon fill="#DC1658" points="521.151,143.96 518.454,151.117 515.77,143.96 514.222,143.96 514.222,152.473 515.294,152.473 
	515.294,145.386 515.315,145.386 517.979,152.473 518.944,152.473 521.604,145.386 521.629,145.386 521.629,152.473 
	522.701,152.473 522.701,143.96 "/>
<g>
	<path fill="#DC1658" d="M357.881,152.456v-11.36h-0.061h-16.444l-0.058-71.741v-0.03h16.502V58v-0.025h-16.502V28.575v-0.019
		h-12.717v0.019v29.399h-11.355V58v11.324h11.355v0.03l0.059,72.132c0,7.312,3.621,10.97,10.865,10.97h18.295H357.881z"/>
	<path fill="#DC1658" d="M115.404,152.456h0.059l-0.059-84.459v-0.029c0-7.046-3.587-10.582-10.768-10.582
		c-4.022,0-9.124,0.393-15.338,1.171c-5.112,0.705-10.196,1.38-15.237,2.033V58v-0.025H61.139V58l0.053,94.456h12.87h0.045
		l-0.045-82.131v-0.022l28.433-0.772v0.016l0.06,82.91H115.404z"/>
	<path fill="#DC1658" d="M143.699,79.364h0.006c0.099-2.145,0.525-3.96,1.293-5.416c1.625-3.063,4.71-4.623,9.324-4.623h17.857
		l0.059,71.387c-5.433,0.338-9.619,0.587-12.636,0.75c-2.673,0.141-4.438,0.216-5.229,0.216c-7.122,0-10.68-3.621-10.68-10.873
		C143.693,130.805,143.681,79.69,143.699,79.364 M172.238,149.837v2.619h12.753h0.058L184.991,0.517V0.505H172.18v0.012v57.46
		h-0.007h-21.252c-5.762,0-10.546,1.92-14.366,5.771c-3.819,3.854-5.73,8.683-5.73,14.518v0.017l0.053,55.244
		c0,5.562,1.683,10.209,5.049,13.93c3.365,3.718,7.797,5.578,13.299,5.578c0.188,0,0.465-0.017,0.845-0.046
		c2.646-0.235,10.011-1.276,22.104-3.139C172.197,149.842,172.216,149.842,172.238,149.837"/>
</g>
<polygon fill="#DC1658" points="306.87,152.456 306.931,152.456 306.87,58 306.87,57.975 294.151,57.975 294.151,58 
	294.205,152.456 "/>
<polygon fill="#DC1658" points="231.751,0.501 231.751,0.52 231.797,152.453 244.662,152.453 244.713,152.453 244.662,104.307 
	270.732,152.453 284.758,152.453 284.809,152.453 255.335,100.135 282.82,58.36 282.82,58 282.82,57.977 268.938,57.977 
	244.662,97.014 244.662,97.001 244.662,0.52 244.662,0.501 "/>
<rect x="31.248" y="16.14" fill="#DC1658" width="13.108" height="23.445"/>
<g>
	<path fill="#DC1658" d="M492.046,67.997v-0.03c0-7.045-3.587-10.578-10.773-10.578c-3.688,0-8.77,0.423-15.246,1.263
		c-5.11,0.65-10.234,1.287-15.338,1.938V0.517V0.5h-12.915v0.017l0.061,151.939h12.854h0.049l-0.049-82.131v-0.022l28.452-0.775
		v0.02l0.049,82.909h12.856h0.049L492.046,67.997z"/>
</g>
<polygon fill="#DC1658" points="31.446,57.977 31.446,58 31.504,152.453 44.171,152.453 44.222,152.453 44.171,58 44.171,57.977 "/>
<g>
	<path fill="#DC1658" d="M421.783,120.031h-12.658h-0.059l0.059,21.064h-0.059h-26.755l-0.043-71.743v-0.028h26.798v0.028v18.425
		v0.019h0.059h12.658v-0.019V68.965v-0.02c0-7.319-3.619-10.978-10.876-10.978h-30.676c-7.245,0-10.868,3.658-10.868,10.978v0.02
		l0.048,72.521c0,7.312,3.624,10.97,10.878,10.97h30.618h0.059c7.244,0,10.863-3.657,10.863-10.97L421.783,120.031z"/>
</g>
<polygon fill="#DC1658" points="214.782,58 214.782,57.975 202.077,57.975 202.077,58 202.116,152.456 214.782,152.456 
	214.836,152.456 "/>
<g>
	<path fill="#DC1658" d="M203.136,181.229c-1.711,0-3.284,0.337-4.879,0.337h-2.294v0.687h0.768c0.85,0,1.119,0.577,1.119,1.312
		v11.894c0,0.718-0.478,1.528-1.364,1.528h-0.522v0.715h1.409c1.98,0,2.213-1.857,2.213-2.837v-11.919
		c1.1-0.523,2.817-0.523,3.319-0.523c4.909,0,6.032,4.576,6.032,7.058c0,3.405-1.386,7.198-4.844,7.198
		c-1.981,0-2.312-1.146-2.312-1.146s-1.072,0-1.072,0.906c0,0.856,1.124,1.434,3.15,1.434c5.402,0,6.982-5.246,6.982-8.392
		C210.841,187.093,210.102,181.229,203.136,181.229"/>
	<path fill="#DC1658" d="M179.879,182.252h0.839c0.738,0,1.093,0.577,1.093,1.409v10.965l-7.51-11.11
		c-0.78-1.14-1.352-1.95-3.169-1.95h-2.026v0.687h0.432c1.286,0,1.55,0.788,1.55,1.409v11.969c0,0.691-0.434,1.356-1.288,1.356h-0.6
		v0.715h5.625v-0.715h-0.733c-1.171,0-1.434-0.927-1.434-1.525v-11.104c0,0,8.246,11.964,8.869,12.774
		c0.38,0.523,0.927,0.739,1.333,0.739c0.432,0,1.095,0,1.503-0.479c-0.21,0-1.001-0.597-1.001-1.863v-12.081
		c0-0.502,0.269-1.195,1.171-1.195h0.669v-0.687h-5.322V182.252z"/>
	<path fill="#DC1658" d="M152.743,182.252h0.687c0.647,0,1.17,0.361,1.17,1.025v12.396c0,0.74-0.399,1.312-1.17,1.312h-0.663v0.715
		h5.387v-0.715h-0.671c-0.499,0-1.141-0.454-1.141-1.312v-12.396c0-0.545,0.429-1.025,1.024-1.025h0.787v-0.687h-5.41V182.252z"/>
	<path fill="#DC1658" d="M72.622,181.398c-0.693,0-4.5,0.113-5.003,0.113c-1.693,0-2.574-0.067-3.436-0.067
		c-0.764,0-1.688,0-2.213,0.262c-0.698,0.354-0.698,0.978-0.698,1.285c0,0.694,0.455,1.526,0.769,1.526
		c0.187-0.546,0.617-1.979,3.739-1.979c0.814,0,0.955,0.502,0.955,1.123v11.945c0,0.855-0.765,1.38-1.479,1.38h-0.812v0.715h6.367
		v-0.715h-0.886c-0.879,0-1.45-0.641-1.45-1.38v-12.045c0-0.5,0.191-0.999,0.902-0.999c1.455,0,3.652,0,3.652,2.387
		c0.831,0,0.925-1.72,0.925-2.387C73.955,182.061,73.723,181.398,72.622,181.398"/>
	<path fill="#DC1658" d="M123.092,193.864c0,0.4-0.81,2.768-3.937,2.768c-1.667,0-3.979-0.026-3.979-0.885v-5.89h2.406
		c1.07,0,1.525,0.433,1.525,1.07c0.67,0,1.525-0.687,1.525-1.378c0-0.356-0.186-0.907-1.38-0.907h-4.077v-5.003
		c0-1.026,2.15-1.172,3.697-1.172c2.691,0,3.454,0.932,3.454,3.075c0.787,0,1.402-0.979,1.402-1.857
		c-0.021-1.649-0.523-2.266-2.998-2.266c-1.216,0-4.606,0.146-5.771,0.146h-3.384v0.687h0.741c0.977,0,1.14,0.693,1.14,1.125v12.392
		c0,0.764-0.641,1.077-1.14,1.077h-0.793v0.855h8.151c2.317,0,4.701-0.407,4.701-2.456
		C124.379,194.534,123.784,193.864,123.092,193.864"/>
	<path fill="#DC1658" d="M94.615,182.252h0.857c0.598,0,1.024,0.432,1.024,1.22v4.599c0,0.121-0.047,0.407-0.379,0.407h-7.965
		c-0.311,0-0.311-0.432-0.311-0.432v-4.646c0-0.479,0.217-1.147,1.026-1.147h0.854v-0.687h-5.501v0.687h0.786
		c0.761,0,1.095,0.502,1.095,1.22v12.158c0,0.737-0.31,1.356-1.167,1.356h-0.714v0.715h5.501v-0.715h-0.734
		c-0.884,0-1.146-0.718-1.146-1.356v-5.41c0,0,0-0.408,0.311-0.408h7.965c0.332,0.044,0.379,0.24,0.379,0.43v5.389
		c0,0.26-0.093,1.356-1.264,1.356h-0.618v0.715h5.672v-0.715h-0.809c-0.956,0-1.241-0.74-1.241-1.356v-12.23
		c0-0.691,0.501-1.147,1.166-1.147h0.884v-0.687h-5.672V182.252z"/>
	<path fill="#DC1658" d="M405.048,182.252h0.851c0.602,0,1.031,0.432,1.031,1.22v4.599c0,0.121-0.054,0.407-0.383,0.407h-7.963
		c-0.312,0-0.312-0.432-0.312-0.432v-4.646c0-0.479,0.221-1.147,1.03-1.147h0.856v-0.687h-5.508v0.687h0.79
		c0.757,0,1.097,0.502,1.097,1.22v12.158c0,0.737-0.318,1.356-1.164,1.356h-0.723v0.715h5.508v-0.715h-0.74
		c-0.88,0-1.146-0.718-1.146-1.356v-5.41c0,0,0-0.408,0.312-0.408h7.963c0.329,0.044,0.383,0.24,0.383,0.43v5.389
		c0,0.26-0.1,1.356-1.264,1.356h-0.618v0.715h5.673v-0.715h-0.817c-0.956,0-1.232-0.74-1.232-1.356v-12.23
		c0-0.691,0.5-1.147,1.164-1.147h0.886v-0.687h-5.673V182.252z"/>
	<path fill="#DC1658" d="M377.784,182.517c2.403,0,4.123,0.715,4.123,3.626c0.048,0.021,0.116,0.021,0.187,0.021
		c0.478,0,1.271-0.575,1.271-1.955c0-2.003-2.173-2.935-5.532-2.935c-3.368,0-8.222,2.078-8.222,8.467
		c0,6.219,4.599,8.368,7.79,8.368c2.864,0,5.695-0.907,5.695-2.695c0-0.672-0.4-1.171-1.072-1.171
		c-1.048,1.955-2.479,2.627-4.739,2.627c-2.457,0-5.77-2.314-5.77-7.204C371.515,184.687,375.281,182.517,377.784,182.517"/>
	<path fill="#DC1658" d="M358.242,181.398c-0.687,0-4.509,0.113-5.008,0.113c-1.69,0-2.573-0.067-3.43-0.067
		c-0.762,0-1.695,0-2.22,0.262c-0.687,0.354-0.687,0.978-0.687,1.285c0,0.694,0.454,1.526,0.755,1.526
		c0.201-0.546,0.626-1.979,3.752-1.979c0.803,0,0.948,0.502,0.948,1.123v11.945c0,0.855-0.764,1.38-1.477,1.38h-0.808v0.715h6.361
		v-0.715h-0.881c-0.883,0-1.452-0.641-1.452-1.38v-12.045c0-0.5,0.185-0.999,0.904-0.999c1.45,0,3.647,0,3.647,2.387
		c0.832,0,0.93-1.72,0.93-2.387C359.579,182.061,359.336,181.398,358.242,181.398"/>
	<path fill="#DC1658" d="M221.986,182.252h0.692c0.643,0,1.164,0.361,1.164,1.025v12.396c0,0.74-0.405,1.312-1.164,1.312h-0.669
		v0.715h5.385v-0.715h-0.662c-0.5,0-1.147-0.454-1.147-1.312v-12.396c0-0.545,0.43-1.025,1.025-1.025h0.784v-0.687h-5.408V182.252z"
		/>
	<path fill="#DC1658" d="M456.798,182.252h0.835c0.744,0,1.094,0.577,1.094,1.409v10.965l-7.507-11.11
		c-0.783-1.14-1.355-1.95-3.17-1.95h-2.03v0.687h0.432c1.293,0,1.55,0.788,1.55,1.409v11.969c0,0.691-0.427,1.356-1.283,1.356
		h-0.599v0.715h5.627v-0.715h-0.74c-1.166,0-1.433-0.927-1.433-1.525v-11.104c0,0,8.248,11.964,8.874,12.774
		c0.379,0.523,0.927,0.739,1.332,0.739c0.427,0,1.099,0,1.496-0.479c-0.206,0-0.994-0.597-0.994-1.863v-12.081
		c0-0.502,0.264-1.195,1.169-1.195h0.664v-0.687h-5.316V182.252z"/>
	<path fill="#DC1658" d="M433.524,193.864c0,0.4-0.815,2.768-3.937,2.768c-1.666,0-3.982-0.026-3.982-0.885v-5.89h2.408
		c1.072,0,1.528,0.433,1.528,1.07c0.662,0,1.525-0.687,1.525-1.378c0-0.356-0.191-0.907-1.388-0.907h-4.074v-5.003
		c0-1.026,2.146-1.172,3.696-1.172c2.694,0,3.456,0.932,3.456,3.075c0.791,0,1.406-0.979,1.406-1.857
		c-0.023-1.649-0.523-2.266-3.005-2.266c-1.21,0-4.601,0.146-5.765,0.146h-3.391v0.687h0.739c0.979,0,1.149,0.693,1.149,1.125
		v12.392c0,0.764-0.645,1.077-1.149,1.077h-0.783v0.855h8.151c2.319,0,4.693-0.407,4.693-2.456
		C434.805,194.534,434.211,193.864,433.524,193.864"/>
	<path fill="#DC1658" d="M331.083,182.252h0.687c0.647,0,1.171,0.361,1.171,1.025v12.396c0,0.74-0.399,1.312-1.171,1.312h-0.665
		v0.715h5.39v-0.715h-0.675c-0.497,0-1.137-0.454-1.137-1.312v-12.396c0-0.545,0.429-1.025,1.023-1.025h0.788v-0.687h-5.411V182.252
		z"/>
	<path fill="#DC1658" d="M272.571,182.252h0.834c0.74,0,1.095,0.577,1.095,1.409v10.965l-7.508-11.11
		c-0.791-1.14-1.361-1.95-3.172-1.95h-2.027v0.687h0.43c1.287,0,1.55,0.788,1.55,1.409v11.969c0,0.691-0.424,1.356-1.286,1.356
		h-0.595v0.715h5.626v-0.715h-0.741c-1.17,0-1.432-0.927-1.432-1.525v-11.104c0,0,8.251,11.964,8.869,12.774
		c0.386,0.523,0.932,0.739,1.339,0.739c0.426,0,1.096,0,1.495-0.479c-0.214,0-0.994-0.597-0.994-1.863v-12.081
		c0-0.502,0.256-1.195,1.164-1.195h0.664v-0.687h-5.311V182.252z"/>
	<path fill="#DC1658" d="M241.616,191.005c1.857-3.696,2.596-5.815,3.005-6.771c0.803,2.219,1.595,4.553,2.429,6.771H241.616z
		 M250.525,195.606c0,0-3.932-10.825-4.263-11.78c-0.477-1.334-1.095-2.598-2.598-2.598c-0.884,0-1.314,0.478-1.314,0.715
		c0.191,0.024,0.884,0.148,0.884,1.196c0,1.31-2.003,5.433-4.245,9.869c-0.616,1.21-1.309,2.551-1.309,3.553
		c0,0.425,0.116,1.548,1.239,1.548c0.979,0,1.379-0.454,1.379-0.575c-0.354-0.024-0.593-0.572-0.593-1.429
		c0-0.86,0.739-2.595,1.286-3.742h6.504c0.197,0.5,0.908,2.573,1.223,3.459c0.071,0.187,0.095,0.354,0.095,0.523
		c0,0.332-0.263,0.616-0.716,0.641h-0.571v0.715h5.146v-0.715h-0.6C251.673,196.986,250.887,196.583,250.525,195.606"/>
	<path fill="#DC1658" d="M316.764,192.863c-0.951-2.074-2.743-3.435-3.815-3.648c1.55-0.075,3.937-4.409,4.623-5.481
		c0.432-0.693,1.004-1.479,1.841-1.479h0.356v-0.688h-4.555v0.688h0.356c0.453,0.022,0.599,0.192,0.599,0.454
		c0,0.191-0.051,0.354-0.191,0.669c-0.049,0.117-1.434,2.475-2.192,3.526c-0.575,0.811-1.669,1.86-3.432,1.86h-1.288v-5.411
		c0-0.453,0.216-0.931,0.927-0.931h0.647v-0.856h-5.203v0.856h0.842c0.638,0,1.067,0.332,1.067,0.931v12.467
		c0,0.667-0.638,1.167-1.21,1.167h-0.699v0.715h5.368v-0.715h-0.791c-0.711,0-0.948-0.74-0.948-1.167v-5.151
		c0-0.502,0.715-0.662,1.574-0.662c2.811,0,4.406,3.214,5.408,5.236c0.791,1.55,1.339,2.629,2.573,2.629
		c0.91,0,1.412-0.312,1.412-0.979v-0.146C319.099,196.746,318.027,195.461,316.764,192.863"/>
</g>
<polygon fill="#DC1658" points="506.441,144.915 509.283,144.915 509.283,152.473 510.414,152.473 510.414,144.915 513.254,144.915 
	513.254,143.96 506.441,143.96 "/>
<polygon fill="#DC1658" points="521.151,143.96 518.454,151.117 515.77,143.96 514.222,143.96 514.222,152.473 515.294,152.473 
	515.294,145.386 515.315,145.386 517.979,152.473 518.944,152.473 521.604,145.386 521.629,145.386 521.629,152.473 
	522.701,152.473 522.701,143.96 "/>
<g>
	<path fill="#DC1658" d="M357.881,152.456v-11.36h-0.061h-16.444l-0.058-71.741v-0.03h16.502V58v-0.025h-16.502V28.575v-0.019
		h-12.717v0.019v29.399h-11.355V58v11.324h11.355v0.03l0.059,72.132c0,7.312,3.621,10.97,10.865,10.97h18.295H357.881z"/>
	<path fill="#DC1658" d="M115.404,152.456h0.059l-0.059-84.459v-0.029c0-7.046-3.587-10.582-10.768-10.582
		c-4.022,0-9.124,0.393-15.338,1.171c-5.112,0.705-10.196,1.38-15.237,2.033V58v-0.025H61.139V58l0.053,94.456h12.87h0.045
		l-0.045-82.131v-0.022l28.433-0.772v0.016l0.06,82.91H115.404z"/>
	<path fill="#DC1658" d="M143.699,79.364h0.006c0.099-2.145,0.525-3.96,1.293-5.416c1.625-3.063,4.71-4.623,9.324-4.623h17.857
		l0.059,71.387c-5.433,0.338-9.619,0.587-12.636,0.75c-2.673,0.141-4.438,0.216-5.229,0.216c-7.122,0-10.68-3.621-10.68-10.873
		C143.693,130.805,143.681,79.69,143.699,79.364 M172.238,149.837v2.619h12.753h0.058L184.991,0.517V0.505H172.18v0.012v57.46
		h-0.007h-21.252c-5.762,0-10.546,1.92-14.366,5.771c-3.819,3.854-5.73,8.683-5.73,14.518v0.017l0.053,55.244
		c0,5.562,1.683,10.209,5.049,13.93c3.365,3.718,7.797,5.578,13.299,5.578c0.188,0,0.465-0.017,0.845-0.046
		c2.646-0.235,10.011-1.276,22.104-3.139C172.197,149.842,172.216,149.842,172.238,149.837"/>
</g>
<polygon fill="#DC1658" points="306.87,152.456 306.931,152.456 306.87,58 306.87,57.975 294.151,57.975 294.151,58 
	294.205,152.456 "/>
<polygon fill="#DC1658" points="231.751,0.501 231.751,0.52 231.797,152.453 244.662,152.453 244.713,152.453 244.662,104.307 
	270.732,152.453 284.758,152.453 284.809,152.453 255.335,100.135 282.82,58.36 282.82,58 282.82,57.977 268.938,57.977 
	244.662,97.014 244.662,97.001 244.662,0.52 244.662,0.501 "/>
<rect x="31.248" y="16.14" fill="#DC1658" width="13.108" height="23.445"/>
<g>
	<path fill="#DC1658" d="M492.046,67.997v-0.03c0-7.045-3.587-10.578-10.773-10.578c-3.688,0-8.77,0.423-15.246,1.263
		c-5.11,0.65-10.234,1.287-15.338,1.938V0.517V0.5h-12.915v0.017l0.061,151.939h12.854h0.049l-0.049-82.131v-0.022l28.452-0.775
		v0.02l0.049,82.909h12.856h0.049L492.046,67.997z"/>
</g>
<polygon fill="#DC1658" points="31.446,57.977 31.446,58 31.504,152.453 44.171,152.453 44.222,152.453 44.171,58 44.171,57.977 "/>
<g>
	<path fill="#DC1658" d="M421.783,120.031h-12.658h-0.059l0.059,21.064h-0.059h-26.755l-0.043-71.743v-0.028h26.798v0.028v18.425
		v0.019h0.059h12.658v-0.019V68.965v-0.02c0-7.319-3.619-10.978-10.876-10.978h-30.676c-7.245,0-10.868,3.658-10.868,10.978v0.02
		l0.048,72.521c0,7.312,3.624,10.97,10.878,10.97h30.618h0.059c7.244,0,10.863-3.657,10.863-10.97L421.783,120.031z"/>
</g>
<polygon fill="#DC1658" points="214.782,58 214.782,57.975 202.077,57.975 202.077,58 202.116,152.456 214.782,152.456 
	214.836,152.456 "/>
<g>
	<path fill="#DC1658" d="M203.136,181.229c-1.711,0-3.284,0.337-4.879,0.337h-2.294v0.687h0.768c0.85,0,1.119,0.577,1.119,1.312
		v11.894c0,0.718-0.478,1.528-1.364,1.528h-0.522v0.715h1.409c1.98,0,2.213-1.857,2.213-2.837v-11.919
		c1.1-0.523,2.817-0.523,3.319-0.523c4.909,0,6.032,4.576,6.032,7.058c0,3.405-1.386,7.198-4.844,7.198
		c-1.981,0-2.312-1.146-2.312-1.146s-1.072,0-1.072,0.906c0,0.856,1.124,1.434,3.15,1.434c5.402,0,6.982-5.246,6.982-8.392
		C210.841,187.093,210.102,181.229,203.136,181.229"/>
	<path fill="#DC1658" d="M179.879,182.252h0.839c0.738,0,1.093,0.577,1.093,1.409v10.965l-7.51-11.11
		c-0.78-1.14-1.352-1.95-3.169-1.95h-2.026v0.687h0.432c1.286,0,1.55,0.788,1.55,1.409v11.969c0,0.691-0.434,1.356-1.288,1.356h-0.6
		v0.715h5.625v-0.715h-0.733c-1.171,0-1.434-0.927-1.434-1.525v-11.104c0,0,8.246,11.964,8.869,12.774
		c0.38,0.523,0.927,0.739,1.333,0.739c0.432,0,1.095,0,1.503-0.479c-0.21,0-1.001-0.597-1.001-1.863v-12.081
		c0-0.502,0.269-1.195,1.171-1.195h0.669v-0.687h-5.322V182.252z"/>
	<path fill="#DC1658" d="M152.743,182.252h0.687c0.647,0,1.17,0.361,1.17,1.025v12.396c0,0.74-0.399,1.312-1.17,1.312h-0.663v0.715
		h5.387v-0.715h-0.671c-0.499,0-1.141-0.454-1.141-1.312v-12.396c0-0.545,0.429-1.025,1.024-1.025h0.787v-0.687h-5.41V182.252z"/>
	<path fill="#DC1658" d="M72.622,181.398c-0.693,0-4.5,0.113-5.003,0.113c-1.693,0-2.574-0.067-3.436-0.067
		c-0.764,0-1.688,0-2.213,0.262c-0.698,0.354-0.698,0.978-0.698,1.285c0,0.694,0.455,1.526,0.769,1.526
		c0.187-0.546,0.617-1.979,3.739-1.979c0.814,0,0.955,0.502,0.955,1.123v11.945c0,0.855-0.765,1.38-1.479,1.38h-0.812v0.715h6.367
		v-0.715h-0.886c-0.879,0-1.45-0.641-1.45-1.38v-12.045c0-0.5,0.191-0.999,0.902-0.999c1.455,0,3.652,0,3.652,2.387
		c0.831,0,0.925-1.72,0.925-2.387C73.955,182.061,73.723,181.398,72.622,181.398"/>
	<path fill="#DC1658" d="M123.092,193.864c0,0.4-0.81,2.768-3.937,2.768c-1.667,0-3.979-0.026-3.979-0.885v-5.89h2.406
		c1.07,0,1.525,0.433,1.525,1.07c0.67,0,1.525-0.687,1.525-1.378c0-0.356-0.186-0.907-1.38-0.907h-4.077v-5.003
		c0-1.026,2.15-1.172,3.697-1.172c2.691,0,3.454,0.932,3.454,3.075c0.787,0,1.402-0.979,1.402-1.857
		c-0.021-1.649-0.523-2.266-2.998-2.266c-1.216,0-4.606,0.146-5.771,0.146h-3.384v0.687h0.741c0.977,0,1.14,0.693,1.14,1.125v12.392
		c0,0.764-0.641,1.077-1.14,1.077h-0.793v0.855h8.151c2.317,0,4.701-0.407,4.701-2.456
		C124.379,194.534,123.784,193.864,123.092,193.864"/>
	<path fill="#DC1658" d="M94.615,182.252h0.857c0.598,0,1.024,0.432,1.024,1.22v4.599c0,0.121-0.047,0.407-0.379,0.407h-7.965
		c-0.311,0-0.311-0.432-0.311-0.432v-4.646c0-0.479,0.217-1.147,1.026-1.147h0.854v-0.687h-5.501v0.687h0.786
		c0.761,0,1.095,0.502,1.095,1.22v12.158c0,0.737-0.31,1.356-1.167,1.356h-0.714v0.715h5.501v-0.715h-0.734
		c-0.884,0-1.146-0.718-1.146-1.356v-5.41c0,0,0-0.408,0.311-0.408h7.965c0.332,0.044,0.379,0.24,0.379,0.43v5.389
		c0,0.26-0.093,1.356-1.264,1.356h-0.618v0.715h5.672v-0.715h-0.809c-0.956,0-1.241-0.74-1.241-1.356v-12.23
		c0-0.691,0.501-1.147,1.166-1.147h0.884v-0.687h-5.672V182.252z"/>
	<path fill="#DC1658" d="M405.048,182.252h0.851c0.602,0,1.031,0.432,1.031,1.22v4.599c0,0.121-0.054,0.407-0.383,0.407h-7.963
		c-0.312,0-0.312-0.432-0.312-0.432v-4.646c0-0.479,0.221-1.147,1.03-1.147h0.856v-0.687h-5.508v0.687h0.79
		c0.757,0,1.097,0.502,1.097,1.22v12.158c0,0.737-0.318,1.356-1.164,1.356h-0.723v0.715h5.508v-0.715h-0.74
		c-0.88,0-1.146-0.718-1.146-1.356v-5.41c0,0,0-0.408,0.312-0.408h7.963c0.329,0.044,0.383,0.24,0.383,0.43v5.389
		c0,0.26-0.1,1.356-1.264,1.356h-0.618v0.715h5.673v-0.715h-0.817c-0.956,0-1.232-0.74-1.232-1.356v-12.23
		c0-0.691,0.5-1.147,1.164-1.147h0.886v-0.687h-5.673V182.252z"/>
	<path fill="#DC1658" d="M377.784,182.517c2.403,0,4.123,0.715,4.123,3.626c0.048,0.021,0.116,0.021,0.187,0.021
		c0.478,0,1.271-0.575,1.271-1.955c0-2.003-2.173-2.935-5.532-2.935c-3.368,0-8.222,2.078-8.222,8.467
		c0,6.219,4.599,8.368,7.79,8.368c2.864,0,5.695-0.907,5.695-2.695c0-0.672-0.4-1.171-1.072-1.171
		c-1.048,1.955-2.479,2.627-4.739,2.627c-2.457,0-5.77-2.314-5.77-7.204C371.515,184.687,375.281,182.517,377.784,182.517"/>
	<path fill="#DC1658" d="M358.242,181.398c-0.687,0-4.509,0.113-5.008,0.113c-1.69,0-2.573-0.067-3.43-0.067
		c-0.762,0-1.695,0-2.22,0.262c-0.687,0.354-0.687,0.978-0.687,1.285c0,0.694,0.454,1.526,0.755,1.526
		c0.201-0.546,0.626-1.979,3.752-1.979c0.803,0,0.948,0.502,0.948,1.123v11.945c0,0.855-0.764,1.38-1.477,1.38h-0.808v0.715h6.361
		v-0.715h-0.881c-0.883,0-1.452-0.641-1.452-1.38v-12.045c0-0.5,0.185-0.999,0.904-0.999c1.45,0,3.647,0,3.647,2.387
		c0.832,0,0.93-1.72,0.93-2.387C359.579,182.061,359.336,181.398,358.242,181.398"/>
	<path fill="#DC1658" d="M221.986,182.252h0.692c0.643,0,1.164,0.361,1.164,1.025v12.396c0,0.74-0.405,1.312-1.164,1.312h-0.669
		v0.715h5.385v-0.715h-0.662c-0.5,0-1.147-0.454-1.147-1.312v-12.396c0-0.545,0.43-1.025,1.025-1.025h0.784v-0.687h-5.408V182.252z"
		/>
	<path fill="#DC1658" d="M456.798,182.252h0.835c0.744,0,1.094,0.577,1.094,1.409v10.965l-7.507-11.11
		c-0.783-1.14-1.355-1.95-3.17-1.95h-2.03v0.687h0.432c1.293,0,1.55,0.788,1.55,1.409v11.969c0,0.691-0.427,1.356-1.283,1.356
		h-0.599v0.715h5.627v-0.715h-0.74c-1.166,0-1.433-0.927-1.433-1.525v-11.104c0,0,8.248,11.964,8.874,12.774
		c0.379,0.523,0.927,0.739,1.332,0.739c0.427,0,1.099,0,1.496-0.479c-0.206,0-0.994-0.597-0.994-1.863v-12.081
		c0-0.502,0.264-1.195,1.169-1.195h0.664v-0.687h-5.316V182.252z"/>
	<path fill="#DC1658" d="M433.524,193.864c0,0.4-0.815,2.768-3.937,2.768c-1.666,0-3.982-0.026-3.982-0.885v-5.89h2.408
		c1.072,0,1.528,0.433,1.528,1.07c0.662,0,1.525-0.687,1.525-1.378c0-0.356-0.191-0.907-1.388-0.907h-4.074v-5.003
		c0-1.026,2.146-1.172,3.696-1.172c2.694,0,3.456,0.932,3.456,3.075c0.791,0,1.406-0.979,1.406-1.857
		c-0.023-1.649-0.523-2.266-3.005-2.266c-1.21,0-4.601,0.146-5.765,0.146h-3.391v0.687h0.739c0.979,0,1.149,0.693,1.149,1.125
		v12.392c0,0.764-0.645,1.077-1.149,1.077h-0.783v0.855h8.151c2.319,0,4.693-0.407,4.693-2.456
		C434.805,194.534,434.211,193.864,433.524,193.864"/>
	<path fill="#DC1658" d="M331.083,182.252h0.687c0.647,0,1.171,0.361,1.171,1.025v12.396c0,0.74-0.399,1.312-1.171,1.312h-0.665
		v0.715h5.39v-0.715h-0.675c-0.497,0-1.137-0.454-1.137-1.312v-12.396c0-0.545,0.429-1.025,1.023-1.025h0.788v-0.687h-5.411V182.252
		z"/>
	<path fill="#DC1658" d="M272.571,182.252h0.834c0.74,0,1.095,0.577,1.095,1.409v10.965l-7.508-11.11
		c-0.791-1.14-1.361-1.95-3.172-1.95h-2.027v0.687h0.43c1.287,0,1.55,0.788,1.55,1.409v11.969c0,0.691-0.424,1.356-1.286,1.356
		h-0.595v0.715h5.626v-0.715h-0.741c-1.17,0-1.432-0.927-1.432-1.525v-11.104c0,0,8.251,11.964,8.869,12.774
		c0.386,0.523,0.932,0.739,1.339,0.739c0.426,0,1.096,0,1.495-0.479c-0.214,0-0.994-0.597-0.994-1.863v-12.081
		c0-0.502,0.256-1.195,1.164-1.195h0.664v-0.687h-5.311V182.252z"/>
	<path fill="#DC1658" d="M241.616,191.005c1.857-3.696,2.596-5.815,3.005-6.771c0.803,2.219,1.595,4.553,2.429,6.771H241.616z
		 M250.525,195.606c0,0-3.932-10.825-4.263-11.78c-0.477-1.334-1.095-2.598-2.598-2.598c-0.884,0-1.314,0.478-1.314,0.715
		c0.191,0.024,0.884,0.148,0.884,1.196c0,1.31-2.003,5.433-4.245,9.869c-0.616,1.21-1.309,2.551-1.309,3.553
		c0,0.425,0.116,1.548,1.239,1.548c0.979,0,1.379-0.454,1.379-0.575c-0.354-0.024-0.593-0.572-0.593-1.429
		c0-0.86,0.739-2.595,1.286-3.742h6.504c0.197,0.5,0.908,2.573,1.223,3.459c0.071,0.187,0.095,0.354,0.095,0.523
		c0,0.332-0.263,0.616-0.716,0.641h-0.571v0.715h5.146v-0.715h-0.6C251.673,196.986,250.887,196.583,250.525,195.606"/>
	<path fill="#DC1658" d="M316.764,192.863c-0.951-2.074-2.743-3.435-3.815-3.648c1.55-0.075,3.937-4.409,4.623-5.481
		c0.432-0.693,1.004-1.479,1.841-1.479h0.356v-0.688h-4.555v0.688h0.356c0.453,0.022,0.599,0.192,0.599,0.454
		c0,0.191-0.051,0.354-0.191,0.669c-0.049,0.117-1.434,2.475-2.192,3.526c-0.575,0.811-1.669,1.86-3.432,1.86h-1.288v-5.411
		c0-0.453,0.216-0.931,0.927-0.931h0.647v-0.856h-5.203v0.856h0.842c0.638,0,1.067,0.332,1.067,0.931v12.467
		c0,0.667-0.638,1.167-1.21,1.167h-0.699v0.715h5.368v-0.715h-0.791c-0.711,0-0.948-0.74-0.948-1.167v-5.151
		c0-0.502,0.715-0.662,1.574-0.662c2.811,0,4.406,3.214,5.408,5.236c0.791,1.55,1.339,2.629,2.573,2.629
		c0.91,0,1.412-0.312,1.412-0.979v-0.146C319.099,196.746,318.027,195.461,316.764,192.863"/>
</g>
<polygon fill="#DC1658" points="506.441,144.915 509.283,144.915 509.283,152.473 510.414,152.473 510.414,144.915 513.254,144.915 
	513.254,143.96 506.441,143.96 "/>
<polygon fill="#DC1658" points="521.151,143.96 518.454,151.117 515.77,143.96 514.222,143.96 514.222,152.473 515.294,152.473 
	515.294,145.386 515.315,145.386 517.979,152.473 518.944,152.473 521.604,145.386 521.629,145.386 521.629,152.473 
	522.701,152.473 522.701,143.96 "/>
</svg>
